<?xml version="1.0" encoding="UTF-8"?>
<svg version="1.1" xmlns="http://www.w3.org/2000/svg" width="512" height="512">
<path d="M0 0 C168.96 0 337.92 0 512 0 C512 168.96 512 337.92 512 512 C343.04 512 174.08 512 0 512 C0 343.04 0 174.08 0 0 Z " fill="#E88955" transform="translate(0,0)"/>
<path d="M0 0 C1.10340729 -0.01007584 2.20681458 -0.02015167 3.34365845 -0.03053284 C6.98156955 -0.05896475 10.61906486 -0.06488752 14.25708008 -0.06811523 C16.796658 -0.07776107 19.33623426 -0.08785391 21.87580872 -0.09837341 C27.19768812 -0.11632399 32.51941377 -0.12202453 37.84130859 -0.12011719 C43.96555755 -0.11831832 50.0890108 -0.14991534 56.21305865 -0.19734818 C62.13280157 -0.24154129 68.0523053 -0.25207485 73.97222328 -0.25028801 C76.47710731 -0.25381366 78.98199806 -0.26700162 81.48677635 -0.29028511 C107.34099026 -0.50808175 107.34099026 -0.50808175 115.83911133 6.43579102 C122.68465458 13.59771775 124.13885451 19.9890118 124.14550781 29.66699219 C124.15383133 30.69529144 124.16215485 31.7235907 124.17073059 32.78305054 C124.19481949 36.18165887 124.20360236 39.58007512 124.21020508 42.97875977 C124.21917369 45.34662432 124.22829558 47.71448829 124.23756409 50.08235168 C124.25405465 55.04791642 124.26175409 60.01341374 124.26464844 64.97900391 C124.27002586 71.3263871 124.30768012 77.67313199 124.3533926 84.0203352 C124.38321213 88.91299217 124.39037311 93.80549653 124.39137459 98.69823647 C124.39556871 101.03730499 124.40797032 103.3763743 124.42889214 105.71535301 C124.45590077 108.99657737 124.4509514 112.27633655 124.43847656 115.55761719 C124.460728 116.99269875 124.460728 116.99269875 124.48342896 118.45677185 C124.40154828 126.06175125 122.29609264 132.65402629 117.0836401 138.35618877 C109.93709562 145.05075255 102.86202958 145.8800354 93.43115234 145.83984375 C92.30181274 145.846707 91.17247314 145.85357025 90.00891113 145.86064148 C86.28681765 145.87889826 82.56514611 145.87507342 78.84301758 145.86938477 C76.24901696 145.87394701 73.65501755 145.87925271 71.0610199 145.88526917 C65.62818913 145.89419806 60.19551953 145.89201427 54.76269531 145.88183594 C48.49766426 145.87035728 42.23306142 145.8844315 35.96808678 145.91123241 C29.92228912 145.93611979 23.87671067 145.93855749 17.83085442 145.93211555 C15.26686834 145.93196237 12.70287401 145.93800456 10.13891792 145.95040703 C6.55111138 145.96531755 2.96424245 145.95463805 -0.62353516 145.9375 C-1.67781204 145.94716797 -2.73208893 145.95683594 -3.8183136 145.96679688 C-11.86089639 145.88652805 -18.1114496 144.06199271 -23.97338867 138.18579102 C-24.51608398 137.66500977 -25.0587793 137.14422852 -25.61791992 136.60766602 C-30.25573179 130.07950552 -30.60085046 123.46646839 -30.56494141 115.74047852 C-30.57180466 114.69877502 -30.57866791 113.65707153 -30.58573914 112.58380127 C-30.60395813 109.15932372 -30.60017692 105.73530637 -30.59448242 102.31079102 C-30.59904612 99.92000175 -30.60435226 97.52921379 -30.61036682 95.13842773 C-30.61928799 90.13528096 -30.61688547 85.1322939 -30.60693359 80.12915039 C-30.59543759 73.72679212 -30.61567082 67.32498488 -30.64485073 60.92269897 C-30.66321943 55.98808305 -30.66291901 51.05359906 -30.65721321 46.11895752 C-30.65706012 43.75872016 -30.66309416 41.39847378 -30.67550468 39.03826904 C-30.6904272 35.73553117 -30.67972774 32.43381016 -30.66259766 29.13110352 C-30.67226562 28.16255432 -30.68193359 27.19400513 -30.69189453 26.19610596 C-30.61412146 19.01390419 -28.98124465 13.72136035 -24.26635742 8.22875977 C-23.63342773 7.69895508 -23.00049805 7.16915039 -22.34838867 6.62329102 C-21.72319336 6.0805957 -21.09799805 5.53790039 -20.45385742 4.97875977 C-13.6793815 0.42012606 -7.99256151 -0.0105364 0 0 Z " fill="#FCFCFB" transform="translate(209.160888671875,95.564208984375)"/>
<path d="M0 0 C1.32 0.66 2.64 1.32 4 2 C4 4.97 4 7.94 4 11 C10.6 11 17.2 11 24 11 C24 8.36 24 5.72 24 3 C24.66 2.34 25.32 1.68 26 1 C26.99 1 27.98 1 29 1 C30.60725635 4.21451269 30.05748185 7.43612536 30 11 C31.794375 10.87625 31.794375 10.87625 33.625 10.75 C38.09747065 10.74207009 40.53555096 12.11295913 44 15 C46.38609562 18.57914343 46.27303254 20.21664863 46.32226562 24.47167969 C46.33716034 25.45033493 46.33716034 25.45033493 46.35235596 26.44876099 C46.38155537 28.60650872 46.39519695 30.76396217 46.40625 32.921875 C46.41775905 34.42539474 46.42927444 35.92891444 46.4407959 37.43243408 C46.46180508 40.58648035 46.47349652 43.74042486 46.48046875 46.89453125 C46.49141991 50.92435505 46.53943425 54.95282089 46.59641266 58.9822197 C46.63378181 62.08961832 46.64408271 65.19669412 46.6471405 68.3042984 C46.65317158 69.78902844 46.66915498 71.27375428 46.69551086 72.75826263 C46.91067031 85.81205334 46.91067031 85.81205334 43.08398438 90.40332031 C39.16326707 94.10781609 36.35222973 94.13665172 30.98339844 94.17700195 C30.26122635 94.18357315 29.53905426 94.19014435 28.79499817 94.19691467 C26.39978942 94.21665981 24.00464346 94.22831399 21.609375 94.23828125 C20.79125587 94.24235678 19.97313675 94.2464323 19.13022614 94.25063133 C14.79857129 94.27149901 10.46694817 94.28579669 6.13525391 94.29516602 C1.66511788 94.30622142 -2.80451911 94.34060892 -7.27447891 94.38033772 C-10.71464958 94.40651142 -14.1547016 94.41485859 -17.59496307 94.41844749 C-19.24236159 94.42331291 -20.88975482 94.43492571 -22.53705597 94.45348549 C-24.84704318 94.47789007 -27.15574308 94.47690998 -29.46582031 94.4699707 C-30.77883118 94.47583694 -32.09184204 94.48170319 -33.44464111 94.48774719 C-37.62373005 93.91443267 -39.74938836 92.64315429 -43 90 C-46.05268022 85.42097967 -46.1257585 81.32326102 -46.14526367 75.91210938 C-46.15164352 74.70735962 -46.15802338 73.50260986 -46.16459656 72.26135254 C-46.16570938 70.9685437 -46.1668222 69.67573486 -46.16796875 68.34375 C-46.1711849 66.9952389 -46.17454924 65.64672815 -46.17805481 64.29821777 C-46.18402938 61.47728669 -46.18589634 58.65638618 -46.18530273 55.83544922 C-46.185201 52.22749626 -46.19887204 48.6197396 -46.21607494 45.01183319 C-46.22721058 42.2288117 -46.22922149 39.44583751 -46.22869301 36.66279602 C-46.23044059 34.688065 -46.24126752 32.71334875 -46.25224304 30.73864746 C-46.2476281 28.93152283 -46.2476281 28.93152283 -46.24291992 27.08789062 C-46.24505745 25.50167908 -46.24505745 25.50167908 -46.24723816 23.88342285 C-45.8442442 19.18349303 -44.62856921 16.65850108 -41.375 13.25 C-37.78086755 10.41205878 -34.49296495 10.23239474 -30 10 C-29.67 7.69 -29.34 5.38 -29 3 C-27.35 3 -25.7 3 -24 3 C-24 5.64 -24 8.28 -24 11 C-13.605 10.505 -13.605 10.505 -3 10 C-2.67 7.03 -2.34 4.06 -2 1 C-1.34 0.67 -0.68 0.34 0 0 Z " fill="#ECA977" transform="translate(88,46)"/>
<path d="M0 0 C5.8657584 0.00790146 11.31221862 0.76588588 17 2.1875 C17.66209473 2.35266113 18.32418945 2.51782227 19.00634766 2.68798828 C22.89605402 3.7462831 25.94876218 5.30459961 29.375 7.375 C31.91244315 6.82791273 31.91244315 6.82791273 34.375 5.375 C42.32757105 1.13362877 49.37917813 0.04235259 58.25 0.125 C59.10335937 0.11726562 59.95671875 0.10953125 60.8359375 0.1015625 C62.05796875 0.10542969 62.05796875 0.10542969 63.3046875 0.109375 C64.03929199 0.11163086 64.77389648 0.11388672 65.53076172 0.11621094 C67.375 0.375 67.375 0.375 69.375 2.375 C69.62223816 5.03846741 69.62223816 5.03846741 69.61791992 8.46118164 C69.62253487 10.3781057 69.62253487 10.3781057 69.62724304 12.33375549 C69.62034582 13.73422424 69.61307889 15.1346912 69.60546875 16.53515625 C69.60427706 17.96479755 69.60382376 19.39443965 69.6040802 20.82408142 C69.60251509 23.82100318 69.5942226 26.81780554 69.58081055 29.81469727 C69.56380528 33.66409802 69.55999662 37.51336764 69.56075573 41.36280155 C69.56048437 44.31466432 69.55500899 47.26649818 69.54775429 50.21835136 C69.54456326 51.63818582 69.5425992 53.05802356 69.54186058 54.4778614 C69.53970249 56.45799048 69.53017331 58.43810744 69.52026367 60.41821289 C69.51645187 61.54691299 69.51264008 62.6756131 69.50871277 63.83851624 C69.375 66.375 69.375 66.375 68.375 67.375 C66.93129154 67.48377897 65.48281894 67.53078869 64.03515625 67.55078125 C52.9969798 67.81141591 44.13456767 68.16904678 34.5625 74.125 C31.82719648 75.68803058 30.48263027 75.90557102 27.375 75.375 C25.36801025 74.0522113 23.36908077 72.71716975 21.375 71.375 C14.96021371 68.53769068 8.82069885 67.89342151 1.875 67.75 C0.0936335 67.69924882 -1.68763219 67.64477322 -3.46875 67.5859375 C-4.24412109 67.56837402 -5.01949219 67.55081055 -5.81835938 67.53271484 C-7.625 67.375 -7.625 67.375 -8.625 66.375 C-8.7295582 64.391568 -8.76355605 62.40438759 -8.77026367 60.41821289 C-8.77664352 59.14341568 -8.78302338 57.86861847 -8.78959656 56.55519104 C-8.79112511 55.15267983 -8.79223914 53.75016811 -8.79296875 52.34765625 C-8.79617965 50.91898057 -8.79954359 49.49030522 -8.80305481 48.06163025 C-8.80905239 45.06297035 -8.81089407 42.0643393 -8.81030273 39.06567383 C-8.81020109 35.21742051 -8.82385297 31.3693516 -8.84107494 27.52114201 C-8.85217706 24.56924078 -8.8542225 21.61738438 -8.85369301 18.6654644 C-8.85487585 17.24644777 -8.85931454 15.82743009 -8.86702538 14.40843391 C-8.87678854 12.42604051 -8.87269253 10.44359334 -8.86791992 8.46118164 C-8.86934494 7.33168594 -8.87076996 6.20219025 -8.87223816 5.03846741 C-8.35337873 -0.55114375 -4.75191833 0.05002019 0 0 Z " fill="#E47C44" transform="translate(225.625,129.625)"/>
<path d="M0 0 C5.44428237 -0.09916726 10.88803448 -0.17160909 16.33300781 -0.21972656 C18.18368696 -0.23979339 20.03430309 -0.26705345 21.88476562 -0.30175781 C24.55093977 -0.35049433 27.21627287 -0.37301787 29.8828125 -0.390625 C30.70492218 -0.41127014 31.52703186 -0.43191528 32.37405396 -0.45318604 C37.69507392 -0.45524613 40.9295007 0.24763896 45 4 C48.91102995 10.22214002 48.43507507 16.73452256 48.3984375 23.90625 C48.40130768 25.14491821 48.40417786 26.38358643 48.40713501 27.65979004 C48.40969116 30.93857836 48.39767697 34.21693536 48.38085938 37.4956665 C48.37500471 39.498389 48.38084083 41.50071714 48.39111328 43.50341797 C48.40968613 47.36704661 48.40739016 51.23009676 48.3984375 55.09375 C48.40451019 56.28246704 48.41058289 57.47118408 48.4168396 58.69592285 C48.36447695 64.88687238 48.11021207 69.58203106 45 75 C39.72314154 80.01301554 35.19920781 80.16762385 28.203125 80.203125 C27.33612976 80.20882507 26.46913452 80.21452515 25.5758667 80.22039795 C23.74004332 80.22984373 21.90420301 80.23638026 20.06835938 80.24023438 C17.27443395 80.24991534 14.48125204 80.28093218 11.6875 80.3125 C9.90104602 80.31903292 8.11458679 80.32428226 6.328125 80.328125 C5.08400848 80.3466452 5.08400848 80.3466452 3.8147583 80.36553955 C-2.27443135 80.34242567 -7.22471703 79.43251894 -11.9609375 75.28125 C-12.42757813 74.6934375 -12.89421875 74.105625 -13.375 73.5 C-14.09816406 72.61828125 -14.09816406 72.61828125 -14.8359375 71.71875 C-17.13806666 68.31963311 -17.12215062 65.31143576 -17.11352539 61.33520508 C-17.11344986 60.17422806 -17.11337433 59.01325104 -17.11329651 57.8170929 C-17.10813522 56.56389755 -17.10297394 55.31070221 -17.09765625 54.01953125 C-17.0962413 52.73640549 -17.09482635 51.45327972 -17.09336853 50.13127136 C-17.08955405 46.72329759 -17.07973291 43.31536657 -17.06866455 39.90740967 C-17.05842743 36.42851337 -17.05386598 32.94961015 -17.04882812 29.47070312 C-17.03810967 22.64711788 -17.02104609 15.82356099 -17 9 C-15.0625 8.4375 -15.0625 8.4375 -13 8 C-10.88074396 10.11925604 -11.58168983 14.6196093 -11.4375 17.5625 C-11.39431641 18.36880859 -11.35113281 19.17511719 -11.30664062 20.00585938 C-11.20024738 22.00368805 -11.09959112 24.0018207 -11 26 C-9.89914062 25.51104248 -8.79828125 25.02208496 -7.6640625 24.51831055 C-2.54244444 22.60718461 2.21202252 22.61815414 7.625 22.70703125 C8.61250244 22.71127609 9.60000488 22.71552094 10.61743164 22.71989441 C13.74524177 22.73657354 16.8723874 22.77420565 20 22.8125 C22.13150106 22.82756075 24.2630123 22.84124671 26.39453125 22.85351562 C31.59657764 22.8864416 36.79824133 22.93653233 42 23 C41.96699341 20.72854654 41.89759995 18.45759874 41.8125 16.1875 C41.76029297 14.29064453 41.76029297 14.29064453 41.70703125 12.35546875 C41.31855555 8.9339063 41.31855555 8.9339063 38.95605469 7.06689453 C35.21236041 5.71572638 31.81286048 5.64304041 27.890625 5.7421875 C27.12320984 5.74880402 26.35579468 5.75542053 25.56512451 5.76223755 C23.12633297 5.78555432 20.6884656 5.82928178 18.25 5.875 C15.79736598 5.91003077 13.34477975 5.94078506 10.89202881 5.96633911 C9.3683856 5.98335958 7.84479675 6.00653674 6.3213501 6.03634644 C4.54770559 6.06163203 2.77345934 6.03600256 1 6 C0 5 0 5 -0.0625 2.4375 C-0.041875 1.633125 -0.02125 0.82875 0 0 Z " fill="#E36D38" transform="translate(423,388)"/>
<path d="M0 0 C0.75901611 0.01248779 1.51803223 0.02497559 2.30004883 0.0378418 C3.2464624 0.08336182 4.19287598 0.12888184 5.16796875 0.17578125 C8.19984375 0.27890625 11.23171875 0.38203125 14.35546875 0.48828125 C14.35546875 11.70828125 14.35546875 22.92828125 14.35546875 34.48828125 C15.67546875 34.48828125 16.99546875 34.48828125 18.35546875 34.48828125 C18.35546875 23.26828125 18.35546875 12.04828125 18.35546875 0.48828125 C21.22234375 0.38515625 24.08921875 0.28203125 27.04296875 0.17578125 C27.93717529 0.13026123 28.83138184 0.08474121 29.75268555 0.0378418 C30.47109619 0.025354 31.18950684 0.01286621 31.9296875 0 C32.65760498 -0.02618408 33.38552246 -0.05236816 34.13549805 -0.0793457 C37.76493309 0.84866887 39.14334572 2.50473163 41.35546875 5.48828125 C42.06371467 8.60121087 42.03351403 11.62293068 41.984375 14.8046875 C41.98678696 15.69816391 41.98919891 16.59164032 41.99168396 17.51219177 C41.99070687 19.39578706 41.97734614 21.27941155 41.95239258 23.1628418 C41.91803648 26.04509945 41.9317514 28.92429789 41.95117188 31.80664062 C41.9442744 33.63933596 41.93460291 35.47202339 41.921875 37.3046875 C41.92683487 38.16518204 41.93179474 39.02567657 41.93690491 39.9122467 C41.86170071 43.7322613 41.81569556 45.83504185 39.57470703 49.01586914 C37.2626462 50.54986682 36.01955311 51.05112761 33.28125 51.23046875 C32.49314941 51.28557617 31.70504883 51.34068359 30.89306641 51.39746094 C22.7117387 51.69026966 14.53986791 51.62071489 6.35546875 51.48828125 C4.39673828 51.46314453 4.39673828 51.46314453 2.3984375 51.4375 C1.35300781 51.39238281 0.30757812 51.34726562 -0.76953125 51.30078125 C-1.63835938 51.26597656 -2.5071875 51.23117187 -3.40234375 51.1953125 C-6.80103487 50.1235998 -7.75995524 48.49345534 -9.64453125 45.48828125 C-10.23458597 42.46564908 -10.22922332 39.49854078 -10.2109375 36.42578125 C-10.21713608 35.55687256 -10.22333466 34.68796387 -10.22972107 33.79272461 C-10.236807 31.96046059 -10.23366664 30.12813201 -10.22094727 28.29589844 C-10.20707367 25.49683965 -10.24117645 22.70112079 -10.27929688 19.90234375 C-10.28024808 18.11848877 -10.27838919 16.33462961 -10.2734375 14.55078125 C-10.28669571 13.71732178 -10.29995392 12.8838623 -10.31361389 12.02514648 C-10.24563299 7.77094621 -10.0026642 5.97171408 -7.39550781 2.45239258 C-4.53797215 0.41220138 -3.43296935 -0.11676766 0 0 Z " fill="#E7824C" transform="translate(52.64453125,415.51171875)"/>
<path d="M0 0 C6.19175955 5.11193507 10.23705943 10.78337574 11.03125 18.93359375 C11.24697631 26.7224488 10.09434831 33.33417569 5.14453125 39.5625 C-1.00510656 45.96725379 -6.48539554 48.58615772 -15.33203125 48.86328125 C-23.05421162 48.77670972 -28.48833897 46.78519369 -34.2734375 41.65625 C-41.16205015 34.36496271 -42.82614715 27.54158828 -42.55078125 17.60546875 C-41.681186 9.71982091 -37.20661865 4.41604694 -31.20703125 -0.51171875 C-21.71527494 -6.32299812 -9.24569886 -6.33289462 0 0 Z " fill="#EA9560" transform="translate(95.20703125,232.51171875)"/>
<path d="M0 0 C0.72477539 -0.01111816 1.44955078 -0.02223633 2.19628906 -0.03369141 C8.19202438 0.12727716 11.77277262 2.19923475 16.140625 6.37109375 C16.60984375 6.92925781 17.0790625 7.48742187 17.5625 8.0625 C18.04203125 8.61808594 18.5215625 9.17367188 19.015625 9.74609375 C23.40635862 16.10736746 23.07514737 23.18513152 22.3125 30.625 C20.52689219 37.11733133 17.07697842 42.16383406 11.24609375 45.625 C7.33815103 46.95713493 3.73415166 47.19627984 -0.375 47.25 C-1.09977539 47.26111816 -1.82455078 47.27223633 -2.57128906 47.28369141 C-8.56486907 47.1227807 -12.07717441 45.01779846 -16.515625 40.94921875 C-22.12312233 34.49443474 -23.24500644 28.13945248 -23.0546875 19.69140625 C-22.23447715 12.84177723 -19.24649062 7.41213201 -13.9375 3 C-9.42603357 0.32203005 -5.12653473 0.06702071 0 0 Z " fill="#FBF9F8" transform="translate(426.6875,285.375)"/>
<path d="M0 0 C5.9090625 -0.12375 5.9090625 -0.12375 11.9375 -0.25 C13.16073975 -0.28641602 14.38397949 -0.32283203 15.64428711 -0.36035156 C23.58698921 -0.44028786 30.24279085 0.3925347 36.15625 6.0703125 C36.5996875 6.74835938 37.043125 7.42640625 37.5 8.125 C37.9640625 8.80820312 38.428125 9.49140625 38.90625 10.1953125 C42.50595392 16.13482397 41.98151332 24.90515144 40.38671875 31.55859375 C38.07749664 36.77723227 33.983445 40.33423896 29 43 C22 45 22 45 0 45 C0 30.15 0 15.3 0 0 Z " fill="#FCFCFA" transform="translate(65,287)"/>
<path d="M0 0 C0 17.49 0 34.98 0 53 C-4.95 53.33 -9.9 53.66 -15 54 C-19.89106895 55.46980193 -19.89106895 55.46980193 -24.70703125 57.16015625 C-27 58 -27 58 -29 58 C-29.15204003 50.81033399 -29.25716901 43.6210818 -29.32958984 36.43017578 C-29.35977686 33.98372913 -29.40073133 31.53739083 -29.45263672 29.09130859 C-29.52536257 25.57622574 -29.55943822 22.06257243 -29.5859375 18.546875 C-29.61690521 17.4519574 -29.64787292 16.35703979 -29.67977905 15.22894287 C-29.68105242 12.36080939 -29.63338915 9.79752364 -29 7 C-26.09228516 4.34375 -26.09228516 4.34375 -23 3 C-22.319375 2.65453125 -21.63875 2.3090625 -20.9375 1.953125 C-13.38602853 -0.78732836 -8.97799438 0 0 0 Z " fill="#FDFBFA" transform="translate(288,137)"/>
<path d="M0 0 C1.98 0 3.96 0 6 0 C8.71905256 2.71905256 8.25332921 4.17417015 8.25878906 7.97851562 C8.26509338 9.23321655 8.27139771 10.48791748 8.27789307 11.78063965 C8.27431339 13.15584452 8.27021145 14.53104812 8.265625 15.90625 C8.26697173 17.31107653 8.26891232 18.71590261 8.27142334 20.12072754 C8.27437426 23.06636996 8.27007809 26.01189118 8.26074219 28.95751953 C8.24934755 32.73738503 8.25590721 36.51696652 8.26788712 40.29682159 C8.27510665 43.19812163 8.27281738 46.09935409 8.26763153 49.00065613 C8.26629529 50.39454685 8.26794188 51.78844366 8.27259064 53.18232727 C8.27765711 55.12871181 8.2685687 57.07511781 8.25878906 59.02148438 C8.25719788 60.13019897 8.25560669 61.23891357 8.25396729 62.38122559 C8 65 8 65 6 67 C3.27644484 67.18487459 0.64572373 67.25271445 -2.078125 67.23828125 C-3.7304769 67.25370726 -5.3828208 67.27001135 -7.03515625 67.28710938 C-9.63999076 67.30353361 -12.24423931 67.31251569 -14.84912109 67.30541992 C-17.36362807 67.30279118 -19.87635616 67.33098878 -22.390625 67.36328125 C-23.54875702 67.34797112 -23.54875702 67.34797112 -24.73028564 67.33235168 C-30.53383639 67.43664357 -32.82219124 69.02199613 -37 73 C-40.72453882 74.24151294 -44.13137946 74.54014702 -48 74 C-53.66176471 71.01470588 -53.66176471 71.01470588 -55 67 C-56.145896 67.00523682 -57.29179199 67.01047363 -58.47241211 67.01586914 C-62.70840682 67.03391717 -66.94439812 67.04543128 -71.18041992 67.05493164 C-73.01668875 67.05997231 -74.85295354 67.06680477 -76.68920898 67.07543945 C-79.32276401 67.08751672 -81.95626616 67.09323081 -84.58984375 67.09765625 C-85.82890724 67.10539818 -85.82890724 67.10539818 -87.09300232 67.11329651 C-89.06236368 67.11349205 -91.03161614 67.06204152 -93 67 C-94.80262522 65.19737478 -94.12768703 62.4562299 -94.12939453 60.02734375 C-94.13254669 58.74931885 -94.13569885 57.47129395 -94.13894653 56.15454102 C-94.13715675 54.74886033 -94.1351058 53.34317995 -94.1328125 51.9375 C-94.13348558 50.50642887 -94.13445564 49.07535785 -94.13571167 47.64428711 C-94.13718844 44.64142776 -94.13503476 41.6385981 -94.13037109 38.63574219 C-94.12467381 34.77847429 -94.12795292 30.92127596 -94.13394356 27.06401062 C-94.13754974 24.10786409 -94.13641032 21.15173417 -94.13381577 18.19558716 C-94.13314665 16.77295931 -94.13397437 15.35032997 -94.13629532 13.92770386 C-94.13882274 11.94268826 -94.13429042 9.95766741 -94.12939453 7.97265625 C-94.12859894 6.84093994 -94.12780334 5.70922363 -94.12698364 4.54321289 C-94 2 -94 2 -93 1 C-91.02 1 -89.04 1 -87 1 C-87.33 20.47 -87.66 39.94 -88 60 C-76.70605903 59.80249633 -76.70605903 59.80249633 -65.41333008 59.54956055 C-63.99041625 59.53494833 -62.56748143 59.52220939 -61.14453125 59.51171875 C-60.04933167 59.473349 -60.04933167 59.473349 -58.93200684 59.4342041 C-54.86236771 59.43074058 -53.22033748 59.81544522 -50.0534668 62.46801758 C-49.37582275 63.30357178 -48.69817871 64.13912598 -48 65 C-46.84859132 66.35854025 -46.84859132 66.35854025 -43.75 66.375 C-39.10785453 65.91078545 -37.91461449 64.51468218 -35 61 C-34 60 -34 60 -30.67358398 59.88647461 C-29.19774445 59.88672565 -27.72189903 59.89228486 -26.24609375 59.90234375 C-25.55906372 59.90335083 -24.87203369 59.90435791 -24.16418457 59.90539551 C-21.58860616 59.91064224 -19.01305147 59.92460341 -16.4375 59.9375 C-10.683125 59.958125 -4.92875 59.97875 1 60 C0.67 40.2 0.34 20.4 0 0 Z " fill="#E37840" transform="translate(299,142)"/>
<path d="M0 0 C13.60638298 0 13.60638298 0 17.875 1.25 C18.71804687 1.48203125 19.56109375 1.7140625 20.4296875 1.953125 C23.94668361 3.38557934 26.1611629 4.37805199 29 7 C29.86681906 10.84295648 29.69685737 14.62510903 29.5859375 18.546875 C29.57744781 19.6732135 29.56895813 20.799552 29.56021118 21.96002197 C29.52662314 25.55765412 29.45132668 29.1530453 29.375 32.75 C29.34490771 35.18876972 29.31753064 37.62757456 29.29296875 40.06640625 C29.22681396 46.04503548 29.12640933 52.02235767 29 58 C28.07960937 57.72285156 27.15921875 57.44570312 26.2109375 57.16015625 C24.94507813 56.79792969 23.67921875 56.43570313 22.375 56.0625 C21.14523438 55.70285156 19.91546875 55.34320313 18.6484375 54.97265625 C12.53011428 53.69243568 6.23494222 53.44535302 0 53 C0 35.51 0 18.02 0 0 Z " fill="#FDFBFA" transform="translate(223,137)"/>
<path d="M0 0 C5.44428237 -0.09916726 10.88803448 -0.17160909 16.33300781 -0.21972656 C18.18368696 -0.23979339 20.03430309 -0.26705345 21.88476562 -0.30175781 C24.55093977 -0.35049433 27.21627287 -0.37301787 29.8828125 -0.390625 C30.70492218 -0.41127014 31.52703186 -0.43191528 32.37405396 -0.45318604 C37.69507392 -0.45524613 40.9295007 0.24763896 45 4 C48.91102995 10.22214002 48.43507507 16.73452256 48.3984375 23.90625 C48.40130768 25.14491821 48.40417786 26.38358643 48.40713501 27.65979004 C48.40969116 30.93857836 48.39767697 34.21693536 48.38085938 37.4956665 C48.37500471 39.498389 48.38084083 41.50071714 48.39111328 43.50341797 C48.40968613 47.36704661 48.40739016 51.23009676 48.3984375 55.09375 C48.40451019 56.28246704 48.41058289 57.47118408 48.4168396 58.69592285 C48.36447695 64.88687238 48.11021207 69.58203106 45 75 C39.72314154 80.01301554 35.19920781 80.16762385 28.203125 80.203125 C27.33612976 80.20882507 26.46913452 80.21452515 25.5758667 80.22039795 C23.74004332 80.22984373 21.90420301 80.23638026 20.06835938 80.24023438 C17.27443395 80.24991534 14.48125204 80.28093218 11.6875 80.3125 C9.90104602 80.31903292 8.11458679 80.32428226 6.328125 80.328125 C5.08400848 80.3466452 5.08400848 80.3466452 3.8147583 80.36553955 C-2.27443135 80.34242567 -7.22471703 79.43251894 -11.9609375 75.28125 C-12.42757813 74.6934375 -12.89421875 74.105625 -13.375 73.5 C-14.09816406 72.61828125 -14.09816406 72.61828125 -14.8359375 71.71875 C-17.13806666 68.31963311 -17.12215062 65.31143576 -17.11352539 61.33520508 C-17.11344986 60.17422806 -17.11337433 59.01325104 -17.11329651 57.8170929 C-17.10813522 56.56389755 -17.10297394 55.31070221 -17.09765625 54.01953125 C-17.0962413 52.73640549 -17.09482635 51.45327972 -17.09336853 50.13127136 C-17.08955405 46.72329759 -17.07973291 43.31536657 -17.06866455 39.90740967 C-17.05842743 36.42851337 -17.05386598 32.94961015 -17.04882812 29.47070312 C-17.03810967 22.64711788 -17.02104609 15.82356099 -17 9 C-15.0625 8.4375 -15.0625 8.4375 -13 8 C-10.88074396 10.11925604 -11.58168983 14.6196093 -11.4375 17.5625 C-11.39431641 18.36880859 -11.35113281 19.17511719 -11.30664062 20.00585938 C-11.20024738 22.00368805 -11.09959112 24.0018207 -11 26 C-9.89914062 25.51104248 -8.79828125 25.02208496 -7.6640625 24.51831055 C-2.54244444 22.60718461 2.21202252 22.61815414 7.625 22.70703125 C8.61250244 22.71127609 9.60000488 22.71552094 10.61743164 22.71989441 C13.74524177 22.73657354 16.8723874 22.77420565 20 22.8125 C22.13150106 22.82756075 24.2630123 22.84124671 26.39453125 22.85351562 C31.59657764 22.8864416 36.79824133 22.93653233 42 23 C41.96699341 20.72854654 41.89759995 18.45759874 41.8125 16.1875 C41.76029297 14.29064453 41.76029297 14.29064453 41.70703125 12.35546875 C41.31855555 8.9339063 41.31855555 8.9339063 38.95605469 7.06689453 C35.21236041 5.71572638 31.81286048 5.64304041 27.890625 5.7421875 C27.12320984 5.74880402 26.35579468 5.75542053 25.56512451 5.76223755 C23.12633297 5.78555432 20.6884656 5.82928178 18.25 5.875 C15.79736598 5.91003077 13.34477975 5.94078506 10.89202881 5.96633911 C9.3683856 5.98335958 7.84479675 6.00653674 6.3213501 6.03634644 C4.54770559 6.06163203 2.77345934 6.03600256 1 6 C0 5 0 5 -0.0625 2.4375 C-0.041875 1.633125 -0.02125 0.82875 0 0 Z M-10.90820312 33.24633789 C-12.94430389 38.38166448 -12.51849103 43.84460989 -12.50097656 49.29223633 C-12.50000404 51.42861716 -12.54166071 53.5614026 -12.5859375 55.69726562 C-12.90842971 63.74709494 -12.90842971 63.74709494 -9.71875 70.84765625 C-6.1390436 73.68159049 -3.54003302 75.2481699 1.0625 75.25878906 C1.85011719 75.26509338 2.63773437 75.27139771 3.44921875 75.27789307 C4.29097656 75.2738446 5.13273437 75.26979614 6 75.265625 C7.30904297 75.26849518 7.30904297 75.26849518 8.64453125 75.27142334 C10.48698211 75.27278244 12.32944262 75.26910518 14.171875 75.26074219 C16.98980243 75.25003873 19.80709236 75.26064672 22.625 75.2734375 C24.41666807 75.27211586 26.20833575 75.26955336 28 75.265625 C28.84175781 75.26967346 29.68351562 75.27372192 30.55078125 75.27789307 C31.33839844 75.27158875 32.12601562 75.26528442 32.9375 75.25878906 C33.62714844 75.25719788 34.31679688 75.25560669 35.02734375 75.25396729 C37.41227369 74.94692231 38.96391397 74.2746127 41 73 C43.06037303 69.90944045 43.24799242 69.29073838 43.22705078 65.80395508 C43.22682419 64.54298759 43.22682419 64.54298759 43.22659302 63.25654602 C43.21627045 62.35333115 43.20594788 61.45011627 43.1953125 60.51953125 C43.1924826 59.59154221 43.18965271 58.66355316 43.18673706 57.70744324 C43.17553836 54.74233121 43.15043435 51.77752079 43.125 48.8125 C43.1149698 46.80273874 43.10584402 44.79297274 43.09765625 42.78320312 C43.07560004 37.85535247 43.04107229 32.92772738 43 28 C36.71956197 27.92368154 30.43924438 27.87128779 24.15844727 27.83520508 C22.02363618 27.82015638 19.88885581 27.79971264 17.75415039 27.77368164 C14.67847086 27.73712614 11.60320156 27.7202341 8.52734375 27.70703125 C7.57915268 27.69154739 6.63096161 27.67606354 5.65403748 27.66011047 C-0.87538802 27.6584673 -6.41200435 27.95340993 -10.90820312 33.24633789 Z " fill="#E57D4B" transform="translate(423,388)"/>
<path d="M0 0 C0.78532608 -0.00524185 1.57065216 -0.0104837 2.379776 -0.0158844 C4.03987445 -0.02230447 5.7000184 -0.02096775 7.36010742 -0.01245117 C9.897799 -0.00394766 12.43323439 -0.0326886 14.97070312 -0.06445312 C16.58463474 -0.06606544 18.19857034 -0.06548702 19.8125 -0.0625 C20.94859962 -0.07935097 20.94859962 -0.07935097 22.10765076 -0.09654236 C25.47820481 -0.05205629 27.61550503 0.19673573 30.45166016 2.07763672 C32.40624536 5.10520449 32.4748505 7.03286402 32.46875 10.625 C32.46939453 11.81673828 32.47003906 13.00847656 32.47070312 14.23632812 C32.45072266 15.47705078 32.43074219 16.71777344 32.41015625 17.99609375 C32.41724609 19.24068359 32.42433594 20.48527344 32.43164062 21.76757812 C32.36776524 30.84279661 32.36776524 30.84279661 30.75805664 33.24975586 C26.43076368 36.11903571 21.33030518 35.5331383 16.3359375 35.3828125 C15.6152861 35.36394485 14.8946347 35.34507721 14.15214539 35.32563782 C12.63674629 35.28393561 11.1214275 35.23921789 9.60620117 35.19165039 C7.28254676 35.12101443 4.9588762 35.06689953 2.63476562 35.01367188 C1.16012691 34.97105561 -0.31448418 34.92746973 -1.7890625 34.8828125 C-2.48488937 34.86812424 -3.18071625 34.85343597 -3.89762878 34.83830261 C-8.79829179 34.66264571 -8.79829179 34.66264571 -11.02734375 32.43359375 C-11.42534913 28.31591857 -11.35639092 24.19270713 -11.34301758 20.05737305 C-11.33986071 18.00710761 -11.36330135 15.9582897 -11.38867188 13.90820312 C-11.38931641 12.61849609 -11.38996094 11.32878906 -11.390625 10 C-11.39360596 8.81349854 -11.39658691 7.62699707 -11.3996582 6.40454102 C-11.02734375 3.43359375 -11.02734375 3.43359375 -10.00634766 1.55029297 C-6.83727072 -0.23793278 -3.54443416 -0.01370141 0 0 Z " fill="#E7854F" transform="translate(397.02734375,184.56640625)"/>
<path d="M0 0 C4.16752028 1.80362296 7.20323407 3.97914366 10 7.5625 C11.81665663 13.80725716 12.16635076 20.85290987 9.75 27 C7.36221009 31.09335413 5.54167863 33.48610712 1 35 C-0.68545724 35.09287771 -2.374493 35.12997204 -4.0625 35.125 C-5.37927734 35.12886719 -5.37927734 35.12886719 -6.72265625 35.1328125 C-9 35 -9 35 -11 34 C-11.33 38.29 -11.66 42.58 -12 47 C-15.63 47 -19.26 47 -23 47 C-23 31.82 -23 16.64 -23 1 C-19.7 1 -16.4 1 -13 1 C-12.67 1.99 -12.34 2.98 -12 4 C-11.319375 3.34 -10.63875 2.68 -9.9375 2 C-6.17855291 -0.55928312 -4.48134687 -0.68359529 0 0 Z " fill="#FBF9F6" transform="translate(350,297)"/>
<path d="M0 0 C0.33 2.31 0.66 4.62 1 7 C1.99 7 2.98 7 4 7 C4.66 4.69 5.32 2.38 6 0 C12.6 0 19.2 0 26 0 C26.66 2.31 27.32 4.62 28 7 C29.32 6.67 30.64 6.34 32 6 C32.33 4.02 32.66 2.04 33 0 C39.6 0 46.2 0 53 0 C53.495 3.465 53.495 3.465 54 7 C55.32 6.67 56.64 6.34 58 6 C58.33 4.02 58.66 2.04 59 0 C65.30229293 -0.36359382 65.30229293 -0.36359382 68.21875 1.15625 C70 3 70 3 70.390625 5.69921875 C70.34421875 6.68535156 70.2978125 7.67148438 70.25 8.6875 C70.21390625 9.68136719 70.1778125 10.67523438 70.140625 11.69921875 C70.09421875 12.45847656 70.0478125 13.21773437 70 14 C59.45618688 14.02312343 48.91237975 14.04091509 38.36854649 14.05181217 C33.47314626 14.057041 28.57776332 14.06413864 23.68237305 14.07543945 C18.96212022 14.08626834 14.24188408 14.09227684 9.5216198 14.09487724 C7.71661046 14.09673149 5.91160208 14.10035209 4.10659981 14.10573006 C1.58740356 14.11294052 -0.9317229 14.11399094 -3.45092773 14.11352539 C-4.20474228 14.11712067 -4.95855682 14.12071594 -5.73521423 14.12442017 C-10.88594784 14.11405216 -10.88594784 14.11405216 -12 13 C-12.38350126 8.01448365 -12.0681542 5.01220165 -9 1 C-6.04335481 -0.4783226 -3.25770263 -0.06032783 0 0 Z " fill="#ECA774" transform="translate(59,62)"/>
<path d="M0 0 C0.33 0 0.66 0 1 0 C1.33 20.79 1.66 41.58 2 63 C8.6 63.33 15.2 63.66 22 64 C31.3320719 66.69194382 31.3320719 66.69194382 35.08203125 69.6328125 C37.04003035 71.30836594 37.04003035 71.30836594 40.1875 71 C44.26502775 69.93048452 47.3136857 68.33941762 50.88671875 66.15625 C58.86216161 61.79260659 69.87624694 63.38684538 78 63 C78.33 42.21 78.66 21.42 79 0 C79.33 0 79.66 0 80 0 C80.495 8.415 80.495 8.415 81 17 C81.99 16.67 82.98 16.34 84 16 C84 33.49 84 50.98 84 69 C66.75 69.1875 66.75 69.1875 61.32324219 69.20776367 C59.89774897 69.23421726 58.47228796 69.26249614 57.046875 69.29296875 C56.31162598 69.28898071 55.57637695 69.28499268 54.81884766 69.28088379 C50.92898487 69.38878842 49.36517408 69.61889173 46.62207031 72.48168945 C46.08678711 73.31273193 45.55150391 74.14377441 45 75 C41.90826248 76.54586876 39.40570448 76.29359521 36 76 C33.5625 74.125 33.5625 74.125 32 72 C32 71.34 32 70.68 32 70 C13.685 69.505 13.685 69.505 -5 69 C-5 51.51 -5 34.02 -5 16 C-4.34 16 -3.68 16 -3 16 C-0.65229357 12.47844036 -0.62330386 10.49228157 -0.375 6.3125 C-0.26285156 4.54326172 -0.26285156 4.54326172 -0.1484375 2.73828125 C-0.09945312 1.83464844 -0.05046875 0.93101562 0 0 Z " fill="#FBF7F3" transform="translate(216,133)"/>
<path d="M0 0 C3.3 0 6.6 0 10 0 C10.33 9.24 10.66 18.48 11 28 C13.1346875 24.7825 13.1346875 24.7825 15.3125 21.5 C17.90928187 17.86782843 19.70591197 15.35883746 24.11328125 14.13671875 C26.84900975 14.18284647 29.33176956 14.40649627 32 15 C30.0219268 19.52131017 26.79440254 22.87192983 23.58203125 26.5625 C21.82161334 28.78601819 21.82161334 28.78601819 22.01171875 30.93359375 C23.40645363 33.84985759 25.15767105 36.40757239 27 39.0625 C30.8978186 44.6934558 30.8978186 44.6934558 32 48 C28.03848707 48.94895557 24.92982464 49.17352354 21 48 C16.76028165 44.12266251 13.88675345 38.90935945 11 34 C10.67 38.62 10.34 43.24 10 48 C6.7 48 3.4 48 0 48 C0 32.16 0 16.32 0 0 Z " fill="#FCFBFA" transform="translate(274,283)"/>
<path d="M0 0 C0.69969682 2.24623699 1.38435043 4.49716414 2.0625 6.75 C2.44535156 8.00296875 2.82820313 9.2559375 3.22265625 10.546875 C3.92656828 13.6738008 4.16653785 15.09466046 3 18 C1.68 18 0.36 18 -1 18 C-1.99 15.36 -2.98 12.72 -4 10 C-4.46374023 10.81678223 -4.92748047 11.63356445 -5.40527344 12.47509766 C-7.14048472 15.52884405 -8.87768545 18.58144088 -10.61621094 21.63330078 C-11.36569928 22.94990843 -12.11441103 24.2669585 -12.86230469 25.58447266 C-13.94257908 27.48719595 -15.0257132 29.38826687 -16.109375 31.2890625 C-16.75874023 32.43068848 -17.40810547 33.57231445 -18.07714844 34.74853516 C-19.9521106 37.91902095 -21.92810972 40.95665922 -24 44 C-29.0536019 43.55991856 -31.33713188 42.27450947 -34.9375 38.75 C-38.78495089 35.10045127 -42.60700796 31.96049464 -47 29 C-47.37125 30.19625 -47.7425 31.3925 -48.125 32.625 C-50.32154521 39.25708093 -53.19134431 45.61008106 -56 52 C-60.31392226 51.5206753 -62.16569547 50.2542015 -65 47 C-65.31453125 47.78246094 -65.6290625 48.56492188 -65.953125 49.37109375 C-66.38109375 50.38300781 -66.8090625 51.39492187 -67.25 52.4375 C-67.66765625 53.44683594 -68.0853125 54.45617187 -68.515625 55.49609375 C-70 58 -70 58 -72.109375 58.91015625 C-72.73328125 58.93980469 -73.3571875 58.96945313 -74 59 C-74.33 58.67 -74.66 58.34 -75 58 C-74.69389399 51.11261472 -71.77106786 45.22723368 -69 39 C-66.64453125 38.84375 -66.64453125 38.84375 -64 39 C-61.6875 41.5 -61.6875 41.5 -60 44 C-57.13142685 38.36866173 -54.37431441 32.72445634 -51.89453125 26.91015625 C-51 25 -51 25 -49 22 C-43.59553388 22.32816493 -40.72704158 25.51185356 -36.9375 29 C-35.72328291 30.11058002 -34.50340489 31.21500959 -33.27734375 32.3125 C-32.74359131 32.80363281 -32.20983887 33.29476562 -31.65991211 33.80078125 C-29.7935885 35.14912388 -28.24788778 35.584234 -26 36 C-25.43285278 34.9941687 -25.43285278 34.9941687 -24.85424805 33.96801758 C-23.13269816 30.91578326 -21.41010942 27.86413646 -19.6875 24.8125 C-19.09259766 23.75740234 -18.49769531 22.70230469 -17.88476562 21.61523438 C-17.30791016 20.59365234 -16.73105469 19.57207031 -16.13671875 18.51953125 C-15.60780029 17.58214111 -15.07888184 16.64475098 -14.53393555 15.67895508 C-13.05611483 13.09800223 -11.53960586 10.54448622 -10 8 C-10.7425 8.350625 -11.485 8.70125 -12.25 9.0625 C-15.1322726 10.04509293 -16.21176345 10.0326802 -19 9 C-18.92578125 6.6796875 -18.92578125 6.6796875 -18 4 C-14.98046875 2.3828125 -14.98046875 2.3828125 -11.1875 1.125 C-9.32158203 0.47917969 -9.32158203 0.47917969 -7.41796875 -0.1796875 C-4.29610056 -0.92893587 -2.90619639 -1.18590382 0 0 Z " fill="#EB9F6D" transform="translate(474,29)"/>
<path d="M0 0 C3.22838142 2.99778275 4.91357551 5.35641083 6.625 9.4375 C6.625 12.7375 6.625 16.0375 6.625 19.4375 C-0.305 19.4375 -7.235 19.4375 -14.375 19.4375 C-12.05248574 24.32245525 -12.05248574 24.32245525 -9.375 25.4375 C-3.94565739 25.76326056 0.44989117 24.89016213 5.625 23.4375 C5.625 26.0775 5.625 28.7175 5.625 31.4375 C1.87129436 33.8686565 -1.92311142 33.80456075 -6.25 33.8125 C-6.94480469 33.83699219 -7.63960937 33.86148438 -8.35546875 33.88671875 C-13.5339264 33.91597557 -16.40706472 32.70002456 -20.375 29.4375 C-25.03843791 23.26159574 -26.35756268 18.06083117 -25.375 10.4375 C-23.44849498 5.36638589 -20.30376151 1.46161043 -15.3984375 -0.9375 C-9.98298788 -2.61022575 -5.11497495 -2.36804396 0 0 Z " fill="#FBF9F7" transform="translate(135.375,298.5625)"/>
<path d="M0 0 C0.76763672 -0.00773437 1.53527344 -0.01546875 2.32617188 -0.0234375 C6.20957821 -0.00989467 8.13774677 0.05016451 11.4375 2.25 C11.73046875 4.4140625 11.73046875 4.4140625 11.625 6.875 C11.58439453 8.10089844 11.58439453 8.10089844 11.54296875 9.3515625 C11.50816406 9.97804688 11.47335937 10.60453125 11.4375 11.25 C10.4475 10.92 9.4575 10.59 8.4375 10.25 C6.31680439 10.07933716 4.18954902 9.9837402 2.0625 9.9375 C0.94101562 9.90011719 -0.18046875 9.86273438 -1.3359375 9.82421875 C-5.26310536 10.34245277 -6.79757699 11.46065188 -9.5625 14.25 C-12.41305441 18.55174574 -12.20766553 23.26963683 -11.5625 28.25 C-9.52031108 32.26144252 -7.36388591 34.87327764 -3.5625 37.25 C-1.14523478 37.64777947 -1.14523478 37.64777947 1.375 37.5 C2.24769531 37.47421875 3.12039063 37.4484375 4.01953125 37.421875 C6.56008014 37.24128671 8.97413979 36.90689606 11.4375 36.25 C11.4375 39.22 11.4375 42.19 11.4375 45.25 C4.00181809 47.10892048 -5.21525076 47.84741442 -12.5390625 45.15625 C-17.94627719 41.75639594 -21.20429225 37.55561095 -23.13671875 31.4296875 C-24.53623019 24.26521611 -24.70594598 16.36734856 -20.90234375 9.96484375 C-15.03964569 2.46127393 -9.28558505 -0.09403124 0 0 Z " fill="#FCFAF8" transform="translate(388.5625,285.75)"/>
<path d="M0 0 C3.46236126 2.39067801 5.74528805 5.0530761 7.625 8.8125 C7.70971364 10.62591842 7.73221083 12.44244161 7.72265625 14.2578125 C7.71943359 15.33417969 7.71621094 16.41054688 7.71289062 17.51953125 C7.70451172 18.64746094 7.69613281 19.77539062 7.6875 20.9375 C7.68298828 22.07316406 7.67847656 23.20882813 7.67382812 24.37890625 C7.66201615 27.19015638 7.64554507 30.0013023 7.625 32.8125 C4.655 32.8125 1.685 32.8125 -1.375 32.8125 C-1.375 31.8225 -1.375 30.8325 -1.375 29.8125 C-2.15875 30.4725 -2.9425 31.1325 -3.75 31.8125 C-8.0210488 34.64295752 -12.42759971 34.73447809 -17.375 33.8125 C-20.5 31.875 -20.5 31.875 -22.375 28.8125 C-22.9934322 25.68133878 -23.01248826 22.94145615 -22.375 19.8125 C-20.07443233 16.52597476 -18.22639029 15.51457635 -14.375 14.8125 C-12.29265408 14.74506652 -10.20831443 14.72735528 -8.125 14.75 C-7.04734375 14.75902344 -5.9696875 14.76804687 -4.859375 14.77734375 C-4.03953125 14.78894531 -3.2196875 14.80054688 -2.375 14.8125 C-3.46284968 11.56266865 -3.46284968 11.56266865 -5.375 8.8125 C-7.14353292 8.71311137 -8.91618275 8.68280777 -10.6875 8.6875 C-12.13576172 8.68363281 -12.13576172 8.68363281 -13.61328125 8.6796875 C-16.03643705 8.79621833 -18.06144969 9.12008352 -20.375 9.8125 C-20.375 7.1725 -20.375 4.5325 -20.375 1.8125 C-13.62302732 -1.71026836 -7.29171108 -2.56560205 0 0 Z " fill="#FBF9F7" transform="translate(259.375,298.1875)"/>
<path d="M0 0 C1.98 0.495 1.98 0.495 4 1 C4 22.45 4 43.9 4 66 C31.39 66 58.78 66 87 66 C87.33 67.32 87.66 68.64 88 70 C86.08497903 71.91502097 82.62170868 71.18537247 80.08447266 71.22119141 C78.9988504 71.23845024 78.9988504 71.23845024 77.89129639 71.25605774 C75.48226238 71.29293055 73.07320237 71.3224857 70.6640625 71.3515625 C68.98790117 71.37468297 67.31174355 71.39807335 65.6355896 71.42172241 C62.10979579 71.47028775 58.58397821 71.51518153 55.05810547 71.55761719 C50.56499554 71.61203446 46.07208183 71.67595378 41.57914162 71.74279213 C38.10965877 71.7932274 34.64012063 71.83820211 31.17054367 71.88163376 C29.51612404 71.90303857 27.8617256 71.92615839 26.2073555 71.9510994 C7.25387577 72.23059235 7.25387577 72.23059235 0 71 C-1.85898062 69.14101938 -1.12777665 66.05039803 -1.12939453 63.56835938 C-1.13114685 62.89682327 -1.13289917 62.22528717 -1.13470459 61.53340149 C-1.1391223 59.30349172 -1.13618542 57.07366064 -1.1328125 54.84375 C-1.13348556 53.30057764 -1.13445561 51.75740539 -1.13571167 50.2142334 C-1.13718853 46.9759826 -1.13503447 43.73775933 -1.13037109 40.49951172 C-1.1246738 36.33957477 -1.12795287 32.17970234 -1.13394356 28.01976776 C-1.13754949 24.83200592 -1.13641044 21.64425949 -1.13381577 18.45649719 C-1.13314658 16.92222588 -1.13397461 15.38795318 -1.13629532 13.85368347 C-1.13882238 11.71296459 -1.13498054 9.57235158 -1.12939453 7.43164062 C-1.12859894 6.21109985 -1.12780334 4.99055908 -1.12698364 3.73303223 C-1 1 -1 1 0 0 Z " fill="#EA9E6C" transform="translate(388,29)"/>
<path d="M0 0 C6.19175955 5.11193507 10.23705943 10.78337574 11.03125 18.93359375 C11.24697631 26.7224488 10.09434831 33.33417569 5.14453125 39.5625 C-1.00510656 45.96725379 -6.48539554 48.58615772 -15.33203125 48.86328125 C-23.05421162 48.77670972 -28.48833897 46.78519369 -34.2734375 41.65625 C-41.16205015 34.36496271 -42.82614715 27.54158828 -42.55078125 17.60546875 C-41.681186 9.71982091 -37.20661865 4.41604694 -31.20703125 -0.51171875 C-21.71527494 -6.32299812 -9.24569886 -6.33289462 0 0 Z M-34.20703125 9.48828125 C-38.38570636 15.01491607 -38.06576621 21.86143973 -37.20703125 28.48828125 C-34.83943162 34.82211615 -30.07843826 39.10133531 -24.4140625 42.59375 C-19.093874 44.75007419 -12.09767387 44.5607649 -6.75390625 42.578125 C-1.44517185 39.42733034 2.43564172 35.33220456 5.10546875 29.73828125 C6.57123425 22.80920797 6.71762996 16.57982767 3.125 10.30859375 C-0.54868159 5.28825468 -5.03680347 1.72232681 -11.20703125 0.48828125 C-20.70696016 -0.47042717 -27.64857115 2.64172342 -34.20703125 9.48828125 Z " fill="#EBA16F" transform="translate(95.20703125,232.51171875)"/>
<path d="M0 0 C12.21 0 24.42 0 37 0 C37 2.64 37 5.28 37 8 C32.71 8 28.42 8 24 8 C24 20.21 24 32.42 24 45 C20.37 45 16.74 45 13 45 C13 32.79 13 20.58 13 8 C8.71 8 4.42 8 0 8 C0 5.36 0 2.72 0 0 Z " fill="#FBF9F7" transform="translate(199,287)"/>
<path d="M0 0 C1.2065625 0.495 1.2065625 0.495 2.4375 1 C2.4375 3.31 2.4375 5.62 2.4375 8 C-1.5225 8 -5.4825 8 -9.5625 8 C-9.5625 8.99 -9.5625 9.98 -9.5625 11 C-8.71945313 11.39832031 -7.87640625 11.79664063 -7.0078125 12.20703125 C-5.36425781 13.00173828 -5.36425781 13.00173828 -3.6875 13.8125 C-2.59695312 14.33457031 -1.50640625 14.85664063 -0.3828125 15.39453125 C2.4375 17 2.4375 17 4.4375 20 C4.77476976 23.64251339 4.69100261 26.30286782 3.4375 29.75 C0.07279118 33.53529742 -3.94205979 34.72095146 -8.91015625 35.25 C-13.23003375 35.36538905 -16.65028071 35.01920996 -20.5625 33 C-20.5625 30.36 -20.5625 27.72 -20.5625 25 C-19.9025 25.165 -19.2425 25.33 -18.5625 25.5 C-14.83150206 26.12183299 -11.34376622 26.06408926 -7.5625 26 C-7.5625 24.68 -7.5625 23.36 -7.5625 22 C-8.16578125 21.75765625 -8.7690625 21.5153125 -9.390625 21.265625 C-18.39268868 17.49056604 -18.39268868 17.49056604 -20.5625 14 C-21.23252914 10.84552651 -21.32437587 8.14273795 -20.5625 5 C-15.25312672 -1.8795233 -7.80194307 -2.19001911 0 0 Z " fill="#FBF9F7" transform="translate(193.5625,298)"/>
<path d="M0 0 C3.33600367 2.05838525 4.8262176 3.7393264 7 7 C7.68150259 13.62916156 8.07645821 20.41374245 4 26 C-0.24740799 28.83160532 -4.01346043 28.64522317 -9 28 C-13.16488878 25.65725006 -14.5296205 23.44296489 -16 19 C-16.60036103 14.30454481 -17.13551262 9.24569782 -14.94921875 4.921875 C-10.63934955 -0.31607813 -6.44521318 -0.8251657 0 0 Z " fill="#E47A45" transform="translate(431,295)"/>
<path d="M0 0 C2.875 0.3125 2.875 0.3125 4.875 1.3125 C4.875 4.2825 4.875 7.2525 4.875 10.3125 C2.88932292 10.47526042 0.90364583 10.63802083 -1.08203125 10.80078125 C-3.65685922 11.44571904 -4.48294023 12.23880004 -6.125 14.3125 C-6.62746675 16.62500836 -6.62746675 16.62500836 -6.63671875 19.19921875 C-6.67216797 20.13701172 -6.70761719 21.07480469 -6.74414062 22.04101562 C-6.77797852 23.50571289 -6.77797852 23.50571289 -6.8125 25 C-6.84666016 25.98806641 -6.88082031 26.97613281 -6.91601562 27.99414062 C-6.99849569 30.43319399 -7.06342433 32.87282939 -7.125 35.3125 C-10.755 35.3125 -14.385 35.3125 -18.125 35.3125 C-18.125 24.0925 -18.125 12.8725 -18.125 1.3125 C-14.825 1.3125 -11.525 1.3125 -8.125 1.3125 C-7.795 2.3025 -7.465 3.2925 -7.125 4.3125 C-6.58875 3.6525 -6.0525 2.9925 -5.5 2.3125 C-3.125 0.3125 -3.125 0.3125 0 0 Z " fill="#FAF5F1" transform="translate(165.125,296.6875)"/>
<path d="M0 0 C10.7 0 10.7 0 15 3 C18.26331306 6.52094303 19.28814732 9.30393216 19.5 14 C19.28814732 18.69606784 18.26331306 21.47905697 15 25 C9.60972676 28.76065575 7.27698125 28 0 28 C0 18.76 0 9.52 0 0 Z " fill="#E9925E" transform="translate(76,295)"/>
<path d="M0 0 C0.33 0 0.66 0 1 0 C1.00364563 0.78260696 1.00729126 1.56521393 1.01104736 2.37153625 C1.04889999 9.74366968 1.10572046 17.11529622 1.18390274 24.48710346 C1.22342779 28.27714595 1.25559117 32.06695437 1.27099609 35.85717773 C1.28613022 39.51439554 1.32051615 43.17097008 1.36830902 46.82790184 C1.38315668 48.22369994 1.39104296 49.61958987 1.39188385 51.01546669 C1.3942447 52.96916002 1.42355675 54.92276474 1.45410156 56.8762207 C1.46298401 57.9887471 1.47186646 59.1012735 1.48101807 60.24751282 C1.74299095 63.1368469 1.74299095 63.1368469 4.03411865 64.88273621 C4.6828595 65.25143326 5.33160034 65.62013031 6 66 C5.34 66.99 4.68 67.98 4 69 C1.03 69 -1.94 69 -5 69 C-5 51.51 -5 34.02 -5 16 C-4.34 16 -3.68 16 -3 16 C-0.65229357 12.47844036 -0.62330386 10.49228157 -0.375 6.3125 C-0.26285156 4.54326172 -0.26285156 4.54326172 -0.1484375 2.73828125 C-0.09945312 1.83464844 -0.05046875 0.93101562 0 0 Z " fill="#F7E7DD" transform="translate(216,133)"/>
<path d="M0 0 C3.3 0 6.6 0 10 0 C10 10.89 10 21.78 10 33 C6.7 33 3.4 33 0 33 C0 22.11 0 11.22 0 0 Z " fill="#FDFDFC" transform="translate(310,298)"/>
<path d="M0 0 C1.04027344 -0.01933594 2.08054687 -0.03867188 3.15234375 -0.05859375 C6.76880516 0.5579037 7.92231524 1.48969835 10.0625 4.4375 C11.20670344 9.2905008 10.74109678 13.30650536 8.1875 17.5625 C3.89153704 20.14007778 -0.03358673 20.39436113 -4.9375 19.4375 C-7.21875 18.3125 -7.21875 18.3125 -8.9375 16.4375 C-9.43359375 13.40625 -9.43359375 13.40625 -9.375 9.9375 C-9.37371094 8.7928125 -9.37242188 7.648125 -9.37109375 6.46875 C-8.9375 3.4375 -8.9375 3.4375 -7.78125 1.55859375 C-5.14466325 -0.04458506 -3.0671527 0.00379129 0 0 Z " fill="#EDB080" transform="translate(62.9375,85.5625)"/>
<path d="M0 0 C0.95648438 -0.02578125 1.91296875 -0.0515625 2.8984375 -0.078125 C6.13062402 0.31084874 7.44610576 0.82674379 9.625 3.25 C10.0859375 6.0625 10.0859375 6.0625 10 9.25 C9.98066406 10.8278125 9.98066406 10.8278125 9.9609375 12.4375 C9.625 15.25 9.625 15.25 7.625 18.25 C4.09405208 19.68853434 0.37671097 19.51327796 -3.375 19.25 C-6.25 17.9375 -6.25 17.9375 -8.375 16.25 C-9.86804497 11.7708651 -10.09576325 7.25784049 -8.5 2.8125 C-6.25988727 -0.29876768 -3.58455736 0.05766044 0 0 Z " fill="#EDAF7E" transform="translate(88.375,85.75)"/>
<path d="M0 0 C2.625 1.375 2.625 1.375 4 4 C4.61702425 8.3699835 4.91539132 12.30124495 2.78125 16.26171875 C0.51360989 18.47465702 -0.80788064 18.61013364 -3.9375 18.8125 C-4.79214844 18.88082031 -5.64679688 18.94914062 -6.52734375 19.01953125 C-8.97018672 19.00023549 -10.74681603 18.94896517 -13 18 C-15.07941082 15.05855495 -15.2713636 12.47851668 -15.25 8.9375 C-15.25515625 8.08027344 -15.2603125 7.22304687 -15.265625 6.33984375 C-15 4 -15 4 -13 1 C-8.65124929 -0.44958357 -4.54377347 -0.49825339 0 0 Z " fill="#ECAD7C" transform="translate(119,86)"/>
<path d="M0 0 C0.66 0 1.32 0 2 0 C2.0246519 4.82380802 2.04283693 9.64757967 2.05493164 14.47143555 C2.05997174 16.11369464 2.06680378 17.75594923 2.07543945 19.39819336 C2.08751926 21.75375479 2.09323139 24.10925709 2.09765625 26.46484375 C2.10281754 27.20339096 2.10797882 27.94193817 2.11329651 28.7028656 C2.1134925 30.46898088 2.06194719 32.23497146 2 34 C1 35 1 35 -1.94140625 35.09765625 C-3.13636719 35.08605469 -4.33132813 35.07445312 -5.5625 35.0625 C-7.35880859 35.04896484 -7.35880859 35.04896484 -9.19140625 35.03515625 C-10.11824219 35.02355469 -11.04507812 35.01195312 -12 35 C-12 34.67 -12 34.34 -12 34 C-8.04 34 -4.08 34 0 34 C-0.69867188 33.02417969 -1.39734375 32.04835938 -2.1171875 31.04296875 C-3.03648348 29.75783049 -3.95575293 28.47267325 -4.875 27.1875 C-5.33519531 26.54490234 -5.79539062 25.90230469 -6.26953125 25.24023438 C-6.71425781 24.61826172 -7.15898437 23.99628906 -7.6171875 23.35546875 C-8.02565918 22.78465576 -8.43413086 22.21384277 -8.85498047 21.62573242 C-12.0079299 17.14908205 -12.0079299 17.14908205 -11.90234375 15.1640625 C-10.62510744 12.10090703 -8.69607289 9.90797774 -6.5625 7.375 C-5.75941406 6.41335938 -4.95632813 5.45171875 -4.12890625 4.4609375 C-2.80330334 2.92858918 -1.43270975 1.43270975 0 0 Z " fill="#E37E48" transform="translate(307,298)"/>
<path d="M0 0 C4.52295082 1.1307377 4.52295082 1.1307377 6.5 3.875 C6.93359375 6.65234375 6.93359375 6.65234375 6.9375 9.8125 C6.95683594 10.85277344 6.97617187 11.89304687 6.99609375 12.96484375 C6.38708188 16.53739371 5.354625 17.70569111 2.5 19.875 C-1.60777749 20.37799316 -3.00875983 20.20249345 -6.5 17.875 C-6.80471206 15.29689701 -6.91857771 13.01100582 -6.875 10.4375 C-6.88660156 9.75623047 -6.89820313 9.07496094 -6.91015625 8.37304688 C-6.89301082 5.45546618 -6.82341308 3.36592943 -5.1953125 0.89453125 C-3.5 -0.125 -3.5 -0.125 0 0 Z " fill="#E4834F" transform="translate(343.5,305.125)"/>
<path d="M0 0 C0.99 0 1.98 0 3 0 C3 6.93 3 13.86 3 21 C1.68 20.67 0.36 20.34 -1 20 C-1.33 20.33 -1.66 20.66 -2 21 C-5.5 20.6875 -5.5 20.6875 -9 20 C-10.16343227 17.67313547 -10.19895988 16.15278587 -10.25 13.5625 C-10.28867188 12.38880859 -10.28867188 12.38880859 -10.328125 11.19140625 C-10 9 -10 9 -8.71484375 7.1953125 C-7 6 -7 6 -3.3125 6.3125 C-2.219375 6.539375 -1.12625 6.76625 0 7 C0 4.69 0 2.38 0 0 Z " fill="#F7F0E8" transform="translate(258,367)"/>
<path d="M0 0 C0.66 0 1.32 0 2 0 C2.350625 0.9075 2.70125 1.815 3.0625 2.75 C5.54761219 6.91857529 7.70195737 7.89152626 12 10 C12 10.66 12 11.32 12 12 C11.0925 12.5775 10.185 13.155 9.25 13.75 C5.77529311 16.15556631 4.241424 18.47776229 2 22 C1.34 22 0.68 22 0 22 C-0.350625 21.0925 -0.70125 20.185 -1.0625 19.25 C-3.54761219 15.08142471 -5.70195737 14.10847374 -10 12 C-10 11.34 -10 10.68 -10 10 C-8.906875 9.46375 -7.81375 8.9275 -6.6875 8.375 C-2.95532156 6.27470525 -1.55739859 4.030914 0 0 Z " fill="#F0B197" transform="translate(483,473)"/>
<path d="M0 0 C10 0 10 0 14 3 C14.5 6 14.5 6 14 9 C12.4375 10.875 12.4375 10.875 10 12 C6.25 12.1875 6.25 12.1875 3 12 C3 14.64 3 17.28 3 20 C2.01 20 1.02 20 0 20 C0 13.4 0 6.8 0 0 Z " fill="#F3E9E0" transform="translate(95,368)"/>
<path d="M0 0 C2.17016137 1.59379057 2.89935753 2.49950773 3.43359375 5.15625 C3.44406064 11.43638457 3.44406064 11.43638457 1.375 14.0625 C-1.73578724 15.29044233 -3.68453042 15.55257826 -7 15 C-9.4375 12.9375 -9.4375 12.9375 -11 10 C-10.93977486 6.50694211 -10.63658168 4.09633511 -8.875 1.0625 C-5.86086748 -0.64550843 -3.37911601 -0.36204814 0 0 Z " fill="#F8F2ED" transform="translate(336,373)"/>
<path d="M0 0 C2.375 1.5625 2.375 1.5625 4 4 C4.56288002 7.94016013 4.60396028 10.05782196 2.4375 13.4375 C-0.92759017 15.59460908 -3.08204004 15.56988508 -7 15 C-9.85576764 12.69696158 -9.98181881 11.14544949 -10.4375 7.5 C-10 4 -10 4 -8.375 1.5625 C-5.28314769 -0.47161336 -3.63632575 -0.60605429 0 0 Z " fill="#F7EFE8" transform="translate(194,373)"/>
<path d="M0 0 C2.375 1.625 2.375 1.625 4 4 C4.64250722 7.77472994 4.26836859 9.50620179 2.4375 12.875 C0 15 0 15 -3.5625 15.5 C-7 15 -7 15 -8.9375 14 C-10.65983409 10.75795935 -10.63194725 7.52896383 -10 4 C-7.31163109 -0.13595217 -4.79825109 -0.79970851 0 0 Z " fill="#F6EEE7" transform="translate(132,373)"/>
<path d="M0 0 C1.32 0.33 2.64 0.66 4 1 C4.33 0.67 4.66 0.34 5 0 C6.66605828 -0.0450286 8.33378384 -0.03874921 10 0 C12.20872638 0 14.41877359 -0.0199416 16.625 -0.125 C19 0 19 0 21 2 C21.1953125 4.8203125 21.1953125 4.8203125 21.125 8.125 C21.10695313 9.22070312 21.08890625 10.31640625 21.0703125 11.4453125 C21.04710937 12.28835938 21.02390625 13.13140625 21 14 C20.34 14 19.68 14 19 14 C18.505 9.05 18.505 9.05 18 4 C16.02 4 14.04 4 12 4 C12 7.63 12 11.26 12 15 C11.01 15 10.02 15 9 15 C9 11.04 9 7.08 9 3 C7.35 3.33 5.7 3.66 4 4 C3.67 7.63 3.34 11.26 3 15 C2.01 15 1.02 15 0 15 C0 10.05 0 5.1 0 0 Z " fill="#F5ECE5" transform="translate(393,373)"/>
<path d="M0 0 C1.875 1.1875 1.875 1.1875 3 3 C3.1875 5.6875 3.1875 5.6875 3 8 C0.03 8 -2.94 8 -6 8 C-5.67 8.99 -5.34 9.98 -5 11 C-2.69 11.33 -0.38 11.66 2 12 C1.67 12.99 1.34 13.98 1 15 C-5.25 15.48076923 -5.25 15.48076923 -8.4375 13.4375 C-10.60396028 10.05782196 -10.56288002 7.94016013 -10 4 C-7.25744073 -0.1138389 -4.81424895 -0.7170158 0 0 Z " fill="#F8F0EA" transform="translate(274,373)"/>
<path d="M0 0 C1.875 1.1875 1.875 1.1875 3 3 C3.1875 5.6875 3.1875 5.6875 3 8 C0.03 8 -2.94 8 -6 8 C-5.67 8.99 -5.34 9.98 -5 11 C-2.69 11.33 -0.38 11.66 2 12 C1.67 12.99 1.34 13.98 1 15 C-5.25 15.48076923 -5.25 15.48076923 -8.4375 13.4375 C-10.60396028 10.05782196 -10.56288002 7.94016013 -10 4 C-7.25744073 -0.1138389 -4.81424895 -0.7170158 0 0 Z " fill="#F5EDE5" transform="translate(227,373)"/>
<path d="M0 0 C1.875 1.1875 1.875 1.1875 3 3 C3.1875 5.6875 3.1875 5.6875 3 8 C0.03 8 -2.94 8 -6 8 C-5.67 8.99 -5.34 9.98 -5 11 C-2.36 11.33 0.28 11.66 3 12 C2.67 12.99 2.34 13.98 2 15 C-1.43119989 15.19795384 -4.20408888 15.30611966 -7.4375 14.0625 C-9.6426188 11.15174319 -9.4395449 8.72694231 -9.43359375 5.15625 C-8.3704778 -0.13059689 -4.8547583 -0.60684479 0 0 Z " fill="#F5EAE2" transform="translate(368,373)"/>
<path d="M0 0 C0.99 0.33 1.98 0.66 3 1 C3 5.62 3 10.24 3 15 C5.97 15 8.94 15 12 15 C12.33 15.99 12.66 16.98 13 18 C12.67 18.66 12.34 19.32 12 20 C10.02090602 20.02686553 8.04171029 20.04633375 6.0625 20.0625 C4.96035156 20.07410156 3.85820313 20.08570313 2.72265625 20.09765625 C0 20 0 20 -1 19 C-1.0983721 17.66956375 -1.13078592 16.33406656 -1.1328125 15 C-1.13410156 14.195625 -1.13539062 13.39125 -1.13671875 12.5625 C-1.13285156 11.716875 -1.12898438 10.87125 -1.125 10 C-1.12886719 9.154375 -1.13273437 8.30875 -1.13671875 7.4375 C-1.13542969 6.633125 -1.13414063 5.82875 -1.1328125 5 C-1.13168457 4.2575 -1.13055664 3.515 -1.12939453 2.75 C-1 1 -1 1 0 0 Z " fill="#EBA270" transform="translate(78,237)"/>
<path d="M0 0 C0.9583374 0.00523682 1.9166748 0.01047363 2.90405273 0.01586914 C4.45576172 0.02070313 4.45576172 0.02070313 6.03881836 0.02563477 C7.12743164 0.03401367 8.21604492 0.04239258 9.33764648 0.05102539 C10.97636719 0.05779297 10.97636719 0.05779297 12.64819336 0.06469727 C15.35723144 0.07652713 18.06616248 0.09300996 20.77514648 0.11352539 C21.33764648 2.05102539 21.33764648 2.05102539 21.77514648 4.11352539 C20.77514648 5.11352539 20.77514648 5.11352539 18.55029297 5.22705078 C17.59195557 5.22181396 16.63361816 5.21657715 15.64624023 5.21118164 C14.09453125 5.20634766 14.09453125 5.20634766 12.51147461 5.20141602 C11.42286133 5.19303711 10.33424805 5.1846582 9.21264648 5.17602539 C7.57392578 5.16925781 7.57392578 5.16925781 5.90209961 5.16235352 C3.19306153 5.15052366 0.48413049 5.13404082 -2.22485352 5.11352539 C-2.78735352 3.17602539 -2.78735352 3.17602539 -3.22485352 1.11352539 C-2.22485352 0.11352539 -2.22485352 0.11352539 0 0 Z " fill="#E57D4B" transform="translate(431.224853515625,428.886474609375)"/>
<path d="M0 0 C1.32 0.33 2.64 0.66 4 1 C4.33 0.67 4.66 0.34 5 0 C7.9375 -0.1875 7.9375 -0.1875 11 0 C13 2 13 2 13.1953125 5.0390625 C13.17210937 6.22242188 13.14890625 7.40578125 13.125 8.625 C13.10695312 9.81351562 13.08890625 11.00203125 13.0703125 12.2265625 C13.04710937 13.14179688 13.02390625 14.05703125 13 15 C12.01 15 11.02 15 10 15 C9.67 11.37 9.34 7.74 9 4 C7.68 4 6.36 4 5 4 C4.67 7.63 4.34 11.26 4 15 C2.68 15 1.36 15 0 15 C0 10.05 0 5.1 0 0 Z " fill="#F3E2D4" transform="translate(201,373)"/>
<path d="M0 0 C7.59 0 15.18 0 23 0 C23.33 1.32 23.66 2.64 24 4 C23 5 23 5 20.86694336 5.11352539 C19.95050049 5.10828857 19.03405762 5.10305176 18.08984375 5.09765625 C17.10048828 5.09443359 16.11113281 5.09121094 15.09179688 5.08789062 C14.05087891 5.07951172 13.00996094 5.07113281 11.9375 5.0625 C10.89271484 5.05798828 9.84792969 5.05347656 8.77148438 5.04882812 C6.1809334 5.03699913 3.59049441 5.02051689 1 5 C0.67 3.35 0.34 1.7 0 0 Z " fill="#E57D4A" transform="translate(429,442)"/>
<path d="M0 0 C1.32 0.33 2.64 0.66 4 1 C4.33 0.67 4.66 0.34 5 0 C7.7096684 -0.28522825 9.36210242 -0.43582128 11.65234375 1.12890625 C13.59804859 3.83033413 13.29345269 5.90296655 13.1875 9.1875 C13.16042969 10.27417969 13.13335937 11.36085938 13.10546875 12.48046875 C13.07066406 13.31191406 13.03585937 14.14335937 13 15 C11.68 15 10.36 15 9 15 C9 11.04 9 7.08 9 3 C7.35 3.33 5.7 3.66 4 4 C3.67 7.63 3.34 11.26 3 15 C2.01 15 1.02 15 0 15 C0 10.05 0 5.1 0 0 Z " fill="#F3E3D9" transform="translate(343,373)"/>
<path d="M0 0 C1.91015625 0.23046875 1.91015625 0.23046875 3.91015625 2.23046875 C4.22265625 5.73046875 4.22265625 5.73046875 3.91015625 9.23046875 C0.44091744 11.54329462 -1.0118995 11.65525461 -5.08984375 11.23046875 C-7.02734375 10.16796875 -7.02734375 10.16796875 -8.08984375 8.23046875 C-7.58234025 0.87166801 -7.30478431 0.14583054 0 0 Z " fill="#FBF7F5" transform="translate(317.08984375,282.76953125)"/>
<path d="M0 0 C0.99 0 1.98 0 3 0 C4.32 2.64 5.64 5.28 7 8 C7.99 5.36 8.98 2.72 10 0 C11.32 0 12.64 0 14 0 C13.03903571 3.01393346 12.03056653 6.00916436 11 9 C10.53013672 10.38058594 10.53013672 10.38058594 10.05078125 11.7890625 C9.72464844 12.68367188 9.39851563 13.57828125 9.0625 14.5 C8.76472656 15.3353125 8.46695312 16.170625 8.16015625 17.03125 C7 19 7 19 4.87109375 19.78125 C4.25363281 19.8534375 3.63617188 19.925625 3 20 C3.37125 18.576875 3.37125 18.576875 3.75 17.125 C4.44061802 12.61296226 2.76541129 9.28449108 0.91015625 5.234375 C0 3 0 3 0 0 Z " fill="#FBFAF7" transform="translate(310,373)"/>
<path d="M0 0 C0.99 0 1.98 0 3 0 C3 1.32 3 2.64 3 4 C4.65 4 6.3 4 8 4 C8 4.99 8 5.98 8 7 C6.68 7 5.36 7 4 7 C4 9.97 4 12.94 4 16 C5.32 16 6.64 16 8 16 C7.67 16.99 7.34 17.98 7 19 C4.625 19.125 4.625 19.125 2 19 C0 17 0 17 -0.1953125 14.6171875 C-0.17210937 13.71226562 -0.14890625 12.80734375 -0.125 11.875 C-0.10695313 10.96492188 -0.08890625 10.05484375 -0.0703125 9.1171875 C-0.04710937 8.41851562 -0.02390625 7.71984375 0 7 C-0.66 7 -1.32 7 -2 7 C-2 6.01 -2 5.02 -2 4 C-1.34 4 -0.68 4 0 4 C0 2.68 0 1.36 0 0 Z " fill="#EFD4C4" transform="translate(375,369)"/>
<path d="M0 0 C0.78375 0.04125 1.5675 0.0825 2.375 0.125 C2.375 1.115 2.375 2.105 2.375 3.125 C1.055 3.125 -0.265 3.125 -1.625 3.125 C-1.625 4.445 -1.625 5.765 -1.625 7.125 C-0.305 7.125 1.015 7.125 2.375 7.125 C2.375 8.115 2.375 9.105 2.375 10.125 C1.055 10.125 -0.265 10.125 -1.625 10.125 C-1.625 14.085 -1.625 18.045 -1.625 22.125 C-2.615 22.125 -3.605 22.125 -4.625 22.125 C-4.625 18.165 -4.625 14.205 -4.625 10.125 C-5.615 10.125 -6.605 10.125 -7.625 10.125 C-7.625 9.135 -7.625 8.145 -7.625 7.125 C-6.635 7.125 -5.645 7.125 -4.625 7.125 C-4.686875 5.949375 -4.686875 5.949375 -4.75 4.75 C-4.57462841 1.06719662 -3.68280338 0.17537159 0 0 Z " fill="#F6EDE5" transform="translate(144.625,365.875)"/>
<path d="M0 0 C0.78375 0.04125 1.5675 0.0825 2.375 0.125 C1.385 0.455 0.395 0.785 -0.625 1.125 C-1.35823796 3.14008358 -1.35823796 3.14008358 -1.625 5.125 C0.685 5.125 2.995 5.125 5.375 5.125 C5.375 4.135 5.375 3.145 5.375 2.125 C6.035 2.125 6.695 2.125 7.375 2.125 C7.375 3.775 7.375 5.425 7.375 7.125 C4.405 7.125 1.435 7.125 -1.625 7.125 C-1.295 8.115 -0.965 9.105 -0.625 10.125 C1.685 10.455 3.995 10.785 6.375 11.125 C6.045 12.115 5.715 13.105 5.375 14.125 C2.125 14.4375 2.125 14.4375 -1.625 14.125 C-4.125 12.0625 -4.125 12.0625 -5.625 9.125 C-5.32427243 0.25353678 -5.32427243 0.25353678 0 0 Z " fill="#F7F0E8" transform="translate(153.625,373.875)"/>
<path d="M0 0 C0.66 0.99 1.32 1.98 2 3 C2.99 3.33 3.98 3.66 5 4 C5 4.66 5 5.32 5 6 C3.68 6 2.36 6 1 6 C1 10.95 1 15.9 1 21 C-0.98 21.66 -2.96 22.32 -5 23 C-5.66 22.34 -6.32 21.68 -7 21 C-6.195625 20.87625 -5.39125 20.7525 -4.5625 20.625 C-3.716875 20.41875 -2.87125 20.2125 -2 20 C-1.67 19.34 -1.34 18.68 -1 18 C-2.32 18 -3.64 18 -5 18 C-5 15.03 -5 12.06 -5 9 C-3.68 9 -2.36 9 -1 9 C-0.67 6.03 -0.34 3.06 0 0 Z " fill="#E17441" transform="translate(384,367)"/>
<path d="M0 0 C0.94875 0.04125 1.8975 0.0825 2.875 0.125 C3.205 1.115 3.535 2.105 3.875 3.125 C1.895 3.125 -0.085 3.125 -2.125 3.125 C0.04187491 5.40021866 2.33120509 7.28294162 4.875 9.125 C4.30155063 11.99224686 4.0135485 12.9864515 1.875 15.125 C-1.75 15.25 -1.75 15.25 -5.125 15.125 C-5.125 14.135 -5.125 13.145 -5.125 12.125 C-3.145 12.125 -1.165 12.125 0.875 12.125 C0.875 11.135 0.875 10.145 0.875 9.125 C0.070625 8.980625 -0.73375 8.83625 -1.5625 8.6875 C-4.125 8.125 -4.125 8.125 -5.125 7.125 C-5.3125 4.6875 -5.3125 4.6875 -5.125 2.125 C-3.125 0.125 -3.125 0.125 0 0 Z " fill="#F6ECE4" transform="translate(169.125,372.875)"/>
<path d="M0 0 C1.32 0 2.64 0 4 0 C4 6.93 4 13.86 4 21 C2.68 21 1.36 21 0 21 C0 14.07 0 7.14 0 0 Z " fill="#F3DDCE" transform="translate(233,367)"/>
<path d="M0 0 C1.670625 0.061875 1.670625 0.061875 3.375 0.125 C3.045 1.115 2.715 2.105 2.375 3.125 C1.055 3.125 -0.265 3.125 -1.625 3.125 C-1.625 3.785 -1.625 4.445 -1.625 5.125 C0.33647874 6.51438077 2.33666576 7.8510411 4.375 9.125 C4 11.5625 4 11.5625 3.375 14.125 C0.41835481 15.6033226 -2.36729737 15.18532783 -5.625 15.125 C-5.625 14.135 -5.625 13.145 -5.625 12.125 C-3.315 12.125 -1.005 12.125 1.375 12.125 C0.4945104 9.87731753 0.4945104 9.87731753 -2.125 8.8125 C-4.625 7.125 -4.625 7.125 -5.5625 4.5625 C-5.583125 3.758125 -5.60375 2.95375 -5.625 2.125 C-3.625 0.125 -3.625 0.125 0 0 Z " fill="#F6EEE7" transform="translate(296.625,372.875)"/>
<path d="M0 0 C1.45742463 -0.08096803 2.91612807 -0.13917774 4.375 -0.1875 C5.18710937 -0.22230469 5.99921875 -0.25710938 6.8359375 -0.29296875 C7.55007813 -0.19628906 8.26421875 -0.09960938 9 0 C9.66 0.99 10.32 1.98 11 3 C11.66 2.34 12.32 1.68 13 1 C13 5.95 13 10.9 13 16 C12.01 15.67 11.02 15.34 10 15 C10 14.01 10 13.02 10 12 C9.01 12.495 9.01 12.495 8 13 C6.00039988 13.039992 3.99952758 13.04346799 2 13 C1.67 11.68 1.34 10.36 1 9 C3.97 9 6.94 9 10 9 C9.03223902 5.20452079 9.03223902 5.20452079 7 2 C4.67182036 1.63239269 2.3381615 1.29758419 0 1 C0 0.67 0 0.34 0 0 Z " fill="#E07F4C" transform="translate(267,372)"/>
<path d="M0 0 C0.33 0 0.66 0 1 0 C1 6.93 1 13.86 1 21 C0.01 20.67 -0.98 20.34 -2 20 C-2 19.01 -2 18.02 -2 17 C-2.66 17.33 -3.32 17.66 -4 18 C-5.99960012 18.039992 -8.00047242 18.04346799 -10 18 C-10.33 16.68 -10.66 15.36 -11 14 C-8.03 14 -5.06 14 -2 14 C-2 12.35 -2 10.7 -2 9 C-1.67 9 -1.34 9 -1 9 C-0.67 6.03 -0.34 3.06 0 0 Z " fill="#E07843" transform="translate(232,367)"/>
<path d="M0 0 C0.99 0 1.98 0 3 0 C3 0.66 3 1.32 3 2 C3.66 2 4.32 2 5 2 C5 1.34 5 0.68 5 0 C6.32 0 7.64 0 9 0 C9 0.99 9 1.98 9 3 C7.68 3.33 6.36 3.66 5 4 C4.67 7.63 4.34 11.26 4 15 C2.68 15 1.36 15 0 15 C0 10.05 0 5.1 0 0 Z " fill="#F4E4D8" transform="translate(280,373)"/>
<path d="M0 0 C2 2 2 2 2 7 C-1.96 7 -5.92 7 -10 7 C-8.42314306 0.69257225 -6.54634667 -0.69641986 0 0 Z " fill="#E69564" transform="translate(130,305)"/>
<path d="M0 0 C1 1 1 1 1.0625 4.5625 C1.041875 5.696875 1.02125 6.83125 1 8 C-1.78823655 9.0326802 -2.8677274 9.04509293 -5.75 8.0625 C-6.4925 7.711875 -7.235 7.36125 -8 7 C-8 5.02 -8 3.04 -8 1 C-5.26752652 -0.36623674 -3.01801098 -0.128426 0 0 Z " fill="#EBA572" transform="translate(92,91)"/>
<path d="M0 0 C2 2 2 2 2.1953125 4.8203125 C2.16050781 6.45613281 2.16050781 6.45613281 2.125 8.125 C2.10695313 9.22070312 2.08890625 10.31640625 2.0703125 11.4453125 C2.04710937 12.28835938 2.02390625 13.13140625 2 14 C1.34 14 0.68 14 0 14 C-0.33 10.7 -0.66 7.4 -1 4 C-2.98 4 -4.96 4 -7 4 C-7 7.3 -7 10.6 -7 14 C-7.66 14 -8.32 14 -9 14 C-9.10815225 12.23050905 -9.18566083 10.45912513 -9.25 8.6875 C-9.29640625 7.70136719 -9.3428125 6.71523438 -9.390625 5.69921875 C-9 3 -9 3 -7.1484375 1.1640625 C-4.5332541 -0.25289142 -2.93395687 -0.38604696 0 0 Z " fill="#F8F3EE" transform="translate(412,373)"/>
<path d="M0 0 C3.5 0.125 3.5 0.125 4.5 1.125 C4.625 4.125 4.625 4.125 4.5 7.125 C3.5 8.125 3.5 8.125 1.65234375 8.22265625 C-0.3984375 8.19010417 -2.44921875 8.15755208 -4.5 8.125 C-4.54241723 5.79205225 -4.54092937 3.45797433 -4.5 1.125 C-3.5 0.125 -3.5 0.125 0 0 Z " fill="#EAA470" transform="translate(63.5,115.875)"/>
<path d="M0 0 C2.97 0 5.94 0 9 0 C9.04241723 2.33294775 9.04092937 4.66702567 9 7 C8 8 8 8 5.0625 8.125 C2 8 2 8 0 7 C0 4.69 0 2.38 0 0 Z " fill="#EBA774" transform="translate(59,92)"/>
<path d="M0 0 C0.125 2.375 0.125 2.375 0 5 C-2 7 -2 7 -5.625 7.125 C-6.73875 7.08375 -7.8525 7.0425 -9 7 C-9.33 5.35 -9.66 3.7 -10 2 C-6.3558226 -0.4294516 -4.28758728 -0.16179575 0 0 Z " fill="#E38753" transform="translate(257,318)"/>
<path d="M0 0 C2.97 0 5.94 0 9 0 C9.04254356 1.99954746 9.04080783 4.00041636 9 6 C8 7 8 7 4.5 7.125 C1 7 1 7 0 6 C-0.04080783 4.00041636 -0.04254356 1.99954746 0 0 Z " fill="#EAA16E" transform="translate(109,117)"/>
<path d="M0 0 C6.15234375 -0.09765625 6.15234375 -0.09765625 8 0 C9 1 9 1 9.125 3.5 C9 6 9 6 8 7 C5.32941149 7.14115161 2.67567762 7.04247107 0 7 C0 4.69 0 2.38 0 0 Z " fill="#EBA370" transform="translate(109,92)"/>
<path d="M0 0 C1.32 0.33 2.64 0.66 4 1 C6.18703385 0.62092718 6.18703385 0.62092718 8 0 C8 0.99 8 1.98 8 3 C7.35546875 3.22429687 6.7109375 3.44859375 6.046875 3.6796875 C3.75611148 4.82889456 3.75611148 4.82889456 3.390625 7.3828125 C3.34421875 8.28773438 3.2978125 9.19265625 3.25 10.125 C3.19328125 11.03507812 3.1365625 11.94515625 3.078125 12.8828125 C3.03945312 13.93082031 3.03945312 13.93082031 3 15 C2.01 15 1.02 15 0 15 C0 10.05 0 5.1 0 0 Z " fill="#F7F1EB" transform="translate(112,373)"/>
<path d="M0 0 C2.5 0.125 2.5 0.125 3.5 1.125 C3.625 4.625 3.625 4.625 3.5 8.125 C2.5 9.125 2.5 9.125 0 9.25 C-2.5 9.125 -2.5 9.125 -3.5 8.125 C-3.625 4.625 -3.625 4.625 -3.5 1.125 C-2.5 0.125 -2.5 0.125 0 0 Z " fill="#E17945" transform="translate(332.5,375.875)"/>
<path d="M0 0 C2.5 0.125 2.5 0.125 3.5 1.125 C3.625 4.625 3.625 4.625 3.5 8.125 C2.5 9.125 2.5 9.125 0 9.25 C-2.5 9.125 -2.5 9.125 -3.5 8.125 C-3.625 4.625 -3.625 4.625 -3.5 1.125 C-2.5 0.125 -2.5 0.125 0 0 Z " fill="#E4834F" transform="translate(254.5,375.875)"/>
<path d="M0 0 C2.5 0.125 2.5 0.125 3.5 1.125 C3.625 4.625 3.625 4.625 3.5 8.125 C2.5 9.125 2.5 9.125 0 9.25 C-2.5 9.125 -2.5 9.125 -3.5 8.125 C-3.625 4.625 -3.625 4.625 -3.5 1.125 C-2.5 0.125 -2.5 0.125 0 0 Z " fill="#E58753" transform="translate(128.5,375.875)"/>
<path d="M0 0 C2.5 0.125 2.5 0.125 3.5 1.125 C3.625 4.625 3.625 4.625 3.5 8.125 C2.5 9.125 2.5 9.125 -0.0625 9.1875 C-0.866875 9.166875 -1.67125 9.14625 -2.5 9.125 C-3.86623674 6.39252652 -3.628426 4.14301098 -3.5 1.125 C-2.5 0.125 -2.5 0.125 0 0 Z " fill="#E48652" transform="translate(190.5,375.875)"/>
<path d="M0 0 C3.125 -0.1875 3.125 -0.1875 6 0 C5.01 0.5259375 5.01 0.5259375 4 1.0625 C1.58896039 2.96557142 1.58896039 2.96557142 1.75 6.6875 C1.8325 7.780625 1.915 8.87375 2 10 C3.98 10.66 5.96 11.32 8 12 C8 12.66 8 13.32 8 14 C1.69181722 14.35706695 1.69181722 14.35706695 -0.9375 13 C-2.6202561 9.83245911 -2.54468716 6.5086342 -2 3 C-1.34 2.01 -0.68 1.02 0 0 Z " fill="#F6EFE7" transform="translate(124,374)"/>
<path d="M0 0 C2.64 0 5.28 0 8 0 C8 0.33 8 0.66 8 1 C6.02 1 4.04 1 2 1 C2 3.64 2 6.28 2 9 C4.64 9 7.28 9 10 9 C9.67 9.66 9.34 10.32 9 11 C6.69 11 4.38 11 2 11 C2 13.31 2 15.62 2 18 C1.34 18 0.68 18 0 18 C0 12.06 0 6.12 0 0 Z " fill="#FAFAF8" transform="translate(96,369)"/>
<path d="M0 0 C1.32 0 2.64 0 4 0 C4 3.96 4 7.92 4 12 C3.01 11.67 2.02 11.34 1 11 C0.01 11.495 0.01 11.495 -1 12 C-1.02687279 10.18757948 -1.04633715 8.37504767 -1.0625 6.5625 C-1.07410156 5.55316406 -1.08570313 4.54382813 -1.09765625 3.50390625 C-1 1 -1 1 0 0 Z " fill="#E1713D" transform="translate(407,376)"/>
<path d="M0 0 C0.66 0.99 1.32 1.98 2 3 C2.99 3 3.98 3 5 3 C5.66 2.34 6.32 1.68 7 1 C7 7.27 7 13.54 7 20 C6.34 20.33 5.68 20.66 5 21 C5 16.05 5 11.1 5 6 C3.68 5.67 2.36 5.34 1 5 C0.34 4.67 -0.32 4.34 -1 4 C-0.67 2.68 -0.34 1.36 0 0 Z " fill="#DD6F3B" transform="translate(417,367)"/>
<path d="M0 0 C-1.22984849 3.68954546 -1.71240619 3.35620309 -5 5 C-6.1446875 6.299375 -6.1446875 6.299375 -7.3125 7.625 C-10 10 -10 10 -13.8125 10.3125 C-14.864375 10.209375 -15.91625 10.10625 -17 10 C-16.4375 8.1875 -16.4375 8.1875 -15 6 C-13.31674721 5.19074385 -11.62480878 4.38993256 -9.87890625 3.7265625 C-7.72127298 2.92893727 -7.72127298 2.92893727 -4.6875 1.3125 C-2 0 -2 0 0 0 Z " fill="#F8F1EB" transform="translate(269,199)"/>
<path d="M0 0 C0.66 0 1.32 0 2 0 C1.96519531 0.68707031 1.93039062 1.37414062 1.89453125 2.08203125 C1.86746094 2.98308594 1.84039062 3.88414062 1.8125 4.8125 C1.77769531 5.70582031 1.74289062 6.59914063 1.70703125 7.51953125 C1.80341581 10.01942462 1.80341581 10.01942462 3.25 11.78125 C5.31850241 13.22181418 6.68964066 13.48275743 9.1875 13.6875 C11.0746875 13.8421875 11.0746875 13.8421875 13 14 C13 14.33 13 14.66 13 15 C4.80743982 15.63019694 4.80743982 15.63019694 1.4375 13 C0.963125 12.34 0.48875 11.68 0 11 C-0.66 11.99 -1.32 12.98 -2 14 C-2 9.71 -2 5.42 -2 1 C-1.34 1 -0.68 1 0 1 C0 0.67 0 0.34 0 0 Z " fill="#E17A45" transform="translate(263,374)"/>
<path d="M0 0 C1.0725 0.103125 2.145 0.20625 3.25 0.3125 C1.25 3.3125 1.25 3.3125 -0.875 4 C-1.803125 4.1546875 -1.803125 4.1546875 -2.75 4.3125 C-3.183125 6.0140625 -3.183125 6.0140625 -3.625 7.75 C-3.99625 8.925625 -4.3675 10.10125 -4.75 11.3125 C-5.74 11.8075 -5.74 11.8075 -6.75 12.3125 C-7.69864076 8.28077677 -8.16665964 6.12845847 -6.25 2.375 C-3.75 0.3125 -3.75 0.3125 0 0 Z " fill="#F5E7DD" transform="translate(332.75,372.6875)"/>
<path d="M0 0 C0.33 1.32 0.66 2.64 1 4 C1.99 4 2.98 4 4 4 C4.33 4.99 4.66 5.98 5 7 C7.31 7.33 9.62 7.66 12 8 C11.67 8.99 11.34 9.98 11 11 C4.75 11.48076923 4.75 11.48076923 1.5625 9.4375 C-0.5248128 6.18129203 -0.2915423 3.79004984 0 0 Z " fill="#F5E7DE" transform="translate(217,377)"/>
<path d="M0 0 C0.99 0 1.98 0 3 0 C3 4.95 3 9.9 3 15 C2.01 15 1.02 15 0 15 C0 10.05 0 5.1 0 0 Z " fill="#F7EFE7" transform="translate(177,373)"/>
<path d="M0 0 C0.99 0 1.98 0 3 0 C3 4.95 3 9.9 3 15 C2.01 15 1.02 15 0 15 C0 10.05 0 5.1 0 0 Z " fill="#F7ECE4" transform="translate(386,373)"/>
<path d="M0 0 C0.99 0 1.98 0 3 0 C3 4.95 3 9.9 3 15 C2.01 15 1.02 15 0 15 C0 10.05 0 5.1 0 0 Z " fill="#F8F0EA" transform="translate(419,373)"/>
<path d="M0 0 C0.66 0.99 1.32 1.98 2 3 C2.99 3.33 3.98 3.66 5 4 C5 4.66 5 5.32 5 6 C3.68 6 2.36 6 1 6 C1 10.95 1 15.9 1 21 C-0.98 21.66 -2.96 22.32 -5 23 C-5.66 22.34 -6.32 21.68 -7 21 C-6.195625 20.87625 -5.39125 20.7525 -4.5625 20.625 C-3.716875 20.41875 -2.87125 20.2125 -2 20 C-0.20711202 16.41422404 -0.99056817 12.20448207 -1.0625 8.26171875 C-1.00672887 5.35116267 -0.67750096 2.82115634 0 0 Z " fill="#DE6E38" transform="translate(384,367)"/>
<path d="M0 0 C5.47826087 -0.36521739 5.47826087 -0.36521739 7.875 1.3125 C9 3 9 3 9 6 C6.03 6 3.06 6 0 6 C0.33 4.68 0.66 3.36 1 2 C0.67 1.34 0.34 0.68 0 0 Z " fill="#F2E3D8" transform="translate(268,373)"/>
<path d="M0 0 C0.639375 0.804375 1.27875 1.60875 1.9375 2.4375 C5.17112801 6.45503783 6.81594715 6.34021146 12 7 C11.67 7.99 11.34 8.98 11 10 C7.75 10.3125 7.75 10.3125 4 10 C1.15751732 7.449054 0.08981203 6.0103853 -0.25 2.1875 C-0.1675 1.465625 -0.085 0.74375 0 0 Z " fill="#F6EBE3" transform="translate(148,378)"/>
<path d="M0 0 C1.99954746 -0.04254356 4.00041636 -0.04080783 6 0 C7 1 7 1 7.0625 3.5625 C7.041875 4.366875 7.02125 5.17125 7 6 C4.69 6 2.38 6 0 6 C0 4.02 0 2.04 0 0 Z " fill="#E28F5C" transform="translate(98,371)"/>
<path d="M0 0 C0.99 0 1.98 0 3 0 C3 1.65 3 3.3 3 5 C4.32 5.33 5.64 5.66 7 6 C5.68 6 4.36 6 3 6 C3 7.98 3 9.96 3 12 C2.34 12 1.68 12 1 12 C1 10.35 1 8.7 1 7 C0.01 7 -0.98 7 -2 7 C-2 6.01 -2 5.02 -2 4 C-1.34 4 -0.68 4 0 4 C0 2.68 0 1.36 0 0 Z " fill="#F9F3EF" transform="translate(375,369)"/>
<path d="M0 0 C2.84788521 2.68966936 4.87665159 4.73850137 6.5625 8.3125 C8.72979493 11.285388 8.72979493 11.285388 11.91796875 11.37890625 C14.96713558 11.37533161 17.96242749 11.2579071 21 11 C21 11.66 21 12.32 21 13 C9.36143498 14.0735426 9.36143498 14.0735426 6.0234375 11.44140625 C4.6875 9.5 4.6875 9.5 3 6 C2.01 6.33 1.02 6.66 0 7 C0 4.69 0 2.38 0 0 Z " fill="#E4986D" transform="translate(286,319)"/>
<path d="M0 0 C0.66 0 1.32 0 2 0 C2.66 1.98 3.32 3.96 4 6 C6.31 6.33 8.62 6.66 11 7 C9.9375 8.5625 9.9375 8.5625 8 10 C4.375 9.8125 4.375 9.8125 1 9 C-0.4783226 6.04335481 -0.06032783 3.25770263 0 0 Z " fill="#F9F3EE" transform="translate(248,378)"/>
<path d="M0 0 C0.66 0 1.32 0 2 0 C3.38226016 2.76452033 3.09525387 5.0461363 3.0625 8.125 C3.05347656 9.22070312 3.04445313 10.31640625 3.03515625 11.4453125 C3.02355469 12.28835938 3.01195312 13.13140625 3 14 C2.01 14 1.02 14 0 14 C0 9.38 0 4.76 0 0 Z " fill="#F9F5F1" transform="translate(343,374)"/>
<path d="M0 0 C0.33 1.32 0.66 2.64 1 4 C0.34 4 -0.32 4 -1 4 C-1 4.99 -1 5.98 -1 7 C-0.34 7 0.32 7 1 7 C1 10.96 1 14.92 1 19 C-2.22334165 15.77665835 -2.42032656 15.26039526 -2.75 11 C-2.82734375 10.13375 -2.9046875 9.2675 -2.984375 8.375 C-3 6 -3 6 -2 3 C-1.34 3 -0.68 3 0 3 C0 2.01 0 1.02 0 0 Z " fill="#E4824C" transform="translate(138,369)"/>
<path d="M0 0 C0.33 0 0.66 0 1 0 C1 4.95 1 9.9 1 15 C0.01 15 -0.98 15 -2 15 C-2.05386629 12.87527424 -2.09273071 10.75016348 -2.125 8.625 C-2.14820313 7.44164062 -2.17140625 6.25828125 -2.1953125 5.0390625 C-2 2 -2 2 0 0 Z " fill="#DC6F3B" transform="translate(417,373)"/>
<path d="M0 0 C0.66 0 1.32 0 2 0 C2 4.29 2 8.58 2 13 C1.01 13 0.02 13 -1 13 C-1.02686553 11.02090602 -1.04633375 9.04171029 -1.0625 7.0625 C-1.07410156 5.96035156 -1.08570313 4.85820312 -1.09765625 3.72265625 C-1 1 -1 1 0 0 Z " fill="#F7F2EC" transform="translate(212,375)"/>
<path d="M0 0 C0.33 0 0.66 0 1 0 C-0.0190915 8.66227778 -2.2156084 13.44767951 -9 19 C-9.66 19 -10.32 19 -11 19 C-9.88721687 16.26862322 -8.85633491 14.87145755 -6.625 12.875 C-3.11268736 9.02818139 -1.692202 4.86862586 0 0 Z " fill="#DF7947" transform="translate(449,313)"/>
<path d="M0 0 C1.32 0 2.64 0 4 0 C3.54738642 1.43931117 3.08767021 2.87638999 2.625 4.3125 C2.36976563 5.11300781 2.11453125 5.91351563 1.8515625 6.73828125 C1 9 1 9 -1 12 C-1.99 11.34 -2.98 10.68 -4 10 C-2.68 6.7 -1.36 3.4 0 0 Z " fill="#F4E6DB" transform="translate(320,373)"/>
<path d="M0 0 C1.45742463 -0.08096803 2.91612807 -0.13917774 4.375 -0.1875 C5.18710937 -0.22230469 5.99921875 -0.25710938 6.8359375 -0.29296875 C7.55007813 -0.19628906 8.26421875 -0.09960938 9 0 C9.66 0.99 10.32 1.98 11 3 C11.66 2.34 12.32 1.68 13 1 C13 5.95 13 10.9 13 16 C12.67 16 12.34 16 12 16 C11.89042969 15.32453125 11.78085937 14.6490625 11.66796875 13.953125 C11.50941406 13.06109375 11.35085938 12.1690625 11.1875 11.25 C11.03667969 10.36828125 10.88585937 9.4865625 10.73046875 8.578125 C9.92551798 5.73712228 9.04538894 4.12257343 7 2 C3.39534252 1.18685089 3.39534252 1.18685089 0 1 C0 0.67 0 0.34 0 0 Z " fill="#E17841" transform="translate(267,372)"/>
<path d="M0 0 C0.99 0 1.98 0 3 0 C6.05153707 6.34719711 6.05153707 6.34719711 5.8125 9.375 C5 11 5 11 3 12 C2.49440092 10.56445975 1.9957251 9.1264798 1.5 7.6875 C1.2215625 6.88699219 0.943125 6.08648437 0.65625 5.26171875 C0 3 0 3 0 0 Z " fill="#F6EDE6" transform="translate(310,373)"/>
<path d="M0 0 C0.66 0 1.32 0 2 0 C2.35915493 6.34507042 2.35915493 6.34507042 0.9375 8.9375 C-2.01168691 10.55479605 -4.70867559 10.18630138 -8 10 C-7.38125 9.71125 -6.7625 9.4225 -6.125 9.125 C-2.94787154 7.44299081 -2.1046221 6.29061694 -0.875 2.875 C-0.58625 1.92625 -0.2975 0.9775 0 0 Z " fill="#FAF4F0" transform="translate(196,377)"/>
<path d="M0 0 C2.875 -0.1875 2.875 -0.1875 6 0 C6.66 0.99 7.32 1.98 8 3 C7.67 3.99 7.34 4.98 7 6 C4.69 6 2.38 6 0 6 C0.185625 5.38125 0.37125 4.7625 0.5625 4.125 C1.23686176 1.95839822 1.23686176 1.95839822 0 0 Z " fill="#EAB99A" transform="translate(152,373)"/>
<path d="M0 0 C0.33 0 0.66 0 1 0 C1 4.62 1 9.24 1 14 C-0.32 13.01 -1.64 12.02 -3 11 C-2.69217504 9.35328588 -2.37860766 7.70764424 -2.0625 6.0625 C-1.88847656 5.14597656 -1.71445313 4.22945313 -1.53515625 3.28515625 C-1 1 -1 1 0 0 Z " fill="#E17C47" transform="translate(200,373)"/>
<path d="M0 0 C2.33944736 0.28730055 4.6739143 0.61936779 7 1 C6.67 1.66 6.34 2.32 6 3 C3.4375 3.625 3.4375 3.625 1 4 C0.67 5.98 0.34 7.96 0 10 C-0.33 10 -0.66 10 -1 10 C-1 8.35 -1 6.7 -1 5 C-1.66 5 -2.32 5 -3 5 C-1.125 1.125 -1.125 1.125 0 0 Z " fill="#F3E9DF" transform="translate(251,373)"/>
<path d="M0 0 C1.65 0 3.3 0 5 0 C6.10370043 3.3111013 5.92673641 5.24748949 5.5625 8.6875 C5.46066406 9.68136719 5.35882813 10.67523438 5.25390625 11.69921875 C5.12822266 12.83810547 5.12822266 12.83810547 5 14 C5.66 14.33 6.32 14.66 7 15 C6.01 15 5.02 15 4 15 C3.67 11.04 3.34 7.08 3 3 C2.01 2.67 1.02 2.34 0 2 C0 1.34 0 0.68 0 0 Z " fill="#F3E2D8" transform="translate(398,373)"/>
<path d="M0 0 C2.875 -0.125 2.875 -0.125 6 0 C8 2 8 2 8.1953125 3.9453125 C8.13020833 5.96354167 8.06510417 7.98177083 8 10 C6 8 6 8 4.5625 5 C3.19148236 1.77974457 3.19148236 1.77974457 0 0 Z " fill="#FBFAF8" transform="translate(331,374)"/>
<path d="M0 0 C2.97 0.33 5.94 0.66 9 1 C8.67 1.99 8.34 2.98 8 4 C5.69 4 3.38 4 1 4 C0.67 2.68 0.34 1.36 0 0 Z " fill="#F6EAE0" transform="translate(267,384)"/>
<path d="M0 0 C5.40832049 -0.4807396 5.40832049 -0.4807396 8 1.625 C9 4 9 4 8.1875 7.25 C7.795625 8.1575 7.40375 9.065 7 10 C6.67 10 6.34 10 6 10 C5.9175 9.05125 5.835 8.1025 5.75 7.125 C5.36247285 3.90165132 5.36247285 3.90165132 3 2.75 C2.34 2.5025 1.68 2.255 1 2 C0.67 1.34 0.34 0.68 0 0 Z " fill="#F1E0D3" transform="translate(188,373)"/>
<path d="M0 0 C3.125 -0.1875 3.125 -0.1875 6 0 C5.21625 0.7425 4.4325 1.485 3.625 2.25 C1.43495469 4.54433318 0.17268614 6.12158858 -1 9 C-1.33 9 -1.66 9 -2 9 C-2.25 3.375 -2.25 3.375 0 0 Z " fill="#F9F6F2" transform="translate(124,374)"/>
<path d="M0 0 C0.66 0 1.32 0 2 0 C1.67 3.96 1.34 7.92 1 12 C0.34 12 -0.32 12 -1 12 C-1.02687279 10.18757948 -1.04633715 8.37504767 -1.0625 6.5625 C-1.07410156 5.55316406 -1.08570313 4.54382813 -1.09765625 3.50390625 C-1 1 -1 1 0 0 Z " fill="#FCFBF7" transform="translate(404,375)"/>
<path d="M0 0 C2.64 0 5.28 0 8 0 C7.67 0.99 7.34 1.98 7 3 C4.69 3 2.38 3 0 3 C0 2.01 0 1.02 0 0 Z " fill="#F5E7DF" transform="translate(363,385)"/>
<path d="M0 0 C2.97 0 5.94 0 9 0 C8.01 1.485 8.01 1.485 7 3 C3.375 3.1875 3.375 3.1875 0 3 C0 2.01 0 1.02 0 0 Z " fill="#E07845" transform="translate(363,382)"/>
<path d="M0 0 C2.97 0 5.94 0 9 0 C9 0.66 9 1.32 9 2 C6.29120665 3.35439668 3.99066732 3.06501451 1 3 C0.67 2.01 0.34 1.02 0 0 Z " fill="#E0824F" transform="translate(152,382)"/>
<path d="M0 0 C0.66 0.66 1.32 1.32 2 2 C0.02 2.66 -1.96 3.32 -4 4 C-4.33 5.65 -4.66 7.3 -5 9 C-6.5625 7.75 -6.5625 7.75 -8 6 C-7.6875 3.8125 -7.6875 3.8125 -7 2 C-4.69 1.34 -2.38 0.68 0 0 Z " fill="#E27A45" transform="translate(296,371)"/>
<path d="M0 0 C1.98 0 3.96 0 6 0 C6.33 0.99 6.66 1.98 7 3 C2.545 3.495 2.545 3.495 -2 4 C-1.34 2.68 -0.68 1.36 0 0 Z " fill="#F5E8E0" transform="translate(166,373)"/>
<path d="M0 0 C1.39195915 4.17587745 -0.17676781 6.13474776 -2 10 C-4 7 -4 7 -3.8125 4.875 C-3.544375 4.25625 -3.27625 3.6375 -3 3 C-2.01 2.67 -1.02 2.34 0 2 C0 1.34 0 0.68 0 0 Z " fill="#DF7C49" transform="translate(319,373)"/>
<path d="M0 0 C-0.33 1.32 -0.66 2.64 -1 4 C-1 3.34 -1 2.68 -1 2 C-3.97 2.66 -6.94 3.32 -10 4 C-9.67 3.01 -9.34 2.02 -9 1 C-6.04335481 -0.4783226 -3.25770263 -0.06032783 0 0 Z " fill="#E19265" transform="translate(257,318)"/>
<path d="M0 0 C5.75 -0.125 5.75 -0.125 8 1 C8 1.66 8 2.32 8 3 C5.03 3 2.06 3 -1 3 C-0.67 2.01 -0.34 1.02 0 0 Z " fill="#E17C45" transform="translate(312,294)"/>
<path d="M0 0 C2.31 0.33 4.62 0.66 7 1 C7 1.66 7 2.32 7 3 C4.04335481 4.4783226 1.25770263 4.06032783 -2 4 C-1.34 2.68 -0.68 1.36 0 0 Z " fill="#F6E8DF" transform="translate(254,205)"/>
<path d="M0 0 C2.97 0 5.94 0 9 0 C5.91330796 3.08669204 5.08072342 3.44855089 1 4 C0.67 2.68 0.34 1.36 0 0 Z " fill="#E08756" transform="translate(221,381)"/>
<path d="M0 0 C0.66 0 1.32 0 2 0 C2 1.65 2 3.3 2 5 C-0.64 5 -3.28 5 -6 5 C-5.34 4.34 -4.68 3.68 -4 3 C-2.68 3 -1.36 3 0 3 C0 2.01 0 1.02 0 0 Z " fill="#F9F6F2" transform="translate(159,376)"/>
<path d="M0 0 C0.33 0 0.66 0 1 0 C1 1.98 1 3.96 1 6 C-1.64 6.33 -4.28 6.66 -7 7 C-7 6.34 -7 5.68 -7 5 C-5.02 4.67 -3.04 4.34 -1 4 C-0.67 2.68 -0.34 1.36 0 0 Z " fill="#E17C45" transform="translate(256,367)"/>
<path d="M0 0 C0.66 0.33 1.32 0.66 2 1 C0.35 4.3 -1.3 7.6 -3 11 C-3.33 10.34 -3.66 9.68 -4 9 C-3.22265625 6.8359375 -3.22265625 6.8359375 -2.0625 4.375 C-1.68222656 3.55773437 -1.30195313 2.74046875 -0.91015625 1.8984375 C-0.60980469 1.27195312 -0.30945313 0.64546875 0 0 Z " fill="#E17C48" transform="translate(362,317)"/>
<path d="M0 0 C0.33 0 0.66 0 1 0 C1.66 2.31 2.32 4.62 3 7 C0 9 0 9 -2.6875 8.625 C-3.450625 8.41875 -4.21375 8.2125 -5 8 C-4.0409375 7.690625 -4.0409375 7.690625 -3.0625 7.375 C-0.65074923 6.10461791 -0.65074923 6.10461791 -0.25 2.875 C-0.1675 1.92625 -0.085 0.9775 0 0 Z " fill="#F0DBCC" transform="translate(132,378)"/>
<path d="M0 0 C2 3 2 3 3 6 C0 8 0 8 -2.6875 7.625 C-3.450625 7.41875 -4.21375 7.2125 -5 7 C-4.0409375 6.6596875 -4.0409375 6.6596875 -3.0625 6.3125 C-0.72806339 5.14749104 -0.72806339 5.14749104 -0.25 2.375 C-0.1675 1.59125 -0.085 0.8075 0 0 Z " fill="#F3E4DA" transform="translate(336,379)"/>
<path d="M0 0 C0.66 0.33 1.32 0.66 2 1 C2.25 3.8125 2.25 3.8125 2 7 C0.68 7.99 -0.64 8.98 -2 10 C-1.34 6.7 -0.68 3.4 0 0 Z " fill="#DF7340" transform="translate(340,377)"/>
<path d="M0 0 C0.66 0 1.32 0 2 0 C2.33 2.31 2.66 4.62 3 7 C2.34 7 1.68 7 1 7 C0.67 7.66 0.34 8.32 0 9 C0 6.03 0 3.06 0 0 Z " fill="#E67A43" transform="translate(181,379)"/>
<path d="M0 0 C1.32 0.33 2.64 0.66 4 1 C4 4.3 4 7.6 4 11 C3.67 11 3.34 11 3 11 C2.814375 9.88625 2.814375 9.88625 2.625 8.75 C2.0430105 6.18924619 1.19578604 4.31185302 0 2 C0 1.34 0 0.68 0 0 Z " fill="#E0733E" transform="translate(371,375)"/>
<path d="M0 0 C2.875 -0.125 2.875 -0.125 6 0 C8 2 8 2 8.125 4.625 C8.08375 5.40875 8.0425 6.1925 8 7 C6 6 6 6 5.125 4.0625 C3.77090236 1.57998766 2.57821507 1.03128603 0 0 Z " fill="#FBFBF9" transform="translate(363,374)"/>
<path d="M0 0 C0.66 0.33 1.32 0.66 2 1 C1.34 2.65 0.68 4.3 0 6 C-0.99 6 -1.98 6 -3 6 C-1.125 1.125 -1.125 1.125 0 0 Z " fill="#F7F2EC" transform="translate(316,387)"/>
<path d="M0 0 C1.98 0 3.96 0 6 0 C6.33 0.99 6.66 1.98 7 3 C4.69 3 2.38 3 0 3 C0 2.01 0 1.02 0 0 Z " fill="#F3E2D7" transform="translate(291,385)"/>
<path d="M0 0 C2.14255793 -0.38932856 2.14255793 -0.38932856 4 -1 C3.01 0.485 3.01 0.485 2 2 C-1.625 2.1875 -1.625 2.1875 -5 2 C-5.33 1.34 -5.66 0.68 -6 0 C-3 -1 -3 -1 0 0 Z " fill="#E07E48" transform="translate(334,371)"/>
<path d="M0 0 C1.65 0 3.3 0 5 0 C5.33 0.99 5.66 1.98 6 3 C4.02 3 2.04 3 0 3 C0 2.01 0 1.02 0 0 Z " fill="#E08656" transform="translate(268,376)"/>
<path d="M0 0 C1.65 0 3.3 0 5 0 C5.33 0.99 5.66 1.98 6 3 C4.02 3 2.04 3 0 3 C0 2.01 0 1.02 0 0 Z " fill="#E1834E" transform="translate(221,376)"/>
<path d="M0 0 C1.65 0 3.3 0 5 0 C5 0.99 5 1.98 5 3 C3.02 3 1.04 3 -1 3 C-0.67 2.01 -0.34 1.02 0 0 Z " fill="#DD7B4A" transform="translate(363,376)"/>
</svg>
